/* XPM */
static char *_f25deb2ce5940e7dcd5bbdea5e06581aBEGQvKknlBquNDD[] = {
/* columns rows colors chars-per-pixel */
"64 64 16 1 ",
"  c #FF644B",
". c #F7645D",
"X c #EE636D",
"o c #E5637B",
"O c #5F5FFF",
"+ c #6E5FF6",
"@ c #7B60EC",
"# c #BF62AE",
"$ c #CCCCC6",
"% c #DC6389",
"& c #D36296",
"* c #C962A2",
"= c #9F61CF",
"- c #9460D9",
"; c #AA61C4",
": c #8860E3",
/* pixels */
"$$$$$$$$$$$$$$$$$$$$$$$$$$$$$$$$$$$$$$$$$$$$$$$$$$$$$$$$$$$$$$$$",
"$OOOOOOOOOOOOOOOOOOOOOOOOOOOOOOOOOOOOOOOOOOOOOOOOOOOOOOOOOOOOOO$",
"$OOOOOOOOOOOOOOOOOOOOOOOOOOOOOOOOOOOOOOOOOOOOOOOOOOOOOOOOOOOOOO$",
"$OOOOOOOOOOOOOOOOOOOOOOOOOOOOOOOOOOOOOOOOOOOOOOOOOOOOOOOOOOOOOO$",
"$OOOOOOOOOOOOOOOOOOOOOOOOOOOOOOOOOOOOOOOOOOOOOOOOOOOOOOOOOOOOOO$",
"$OOOOOOOOOOOOOOOOOOOOOOOOOOOOOOOOOOOOOOOOOOOOOOOOOOOOOOOOOOOOOO$",
"$OOOOOOOOOOOOOOOOOOOOOOOOOOOOOOOOOOOOOOOOOOOOOOOOOOOOOOOOOOOOOO$",
"$OOOOOOOOOOOOOOOOOOOOOOOOOOOOOOOOOOOOOOOOOOOOOOOOOOOOOOOOOOOOOO$",
"$OOOOOOOOOOOOOOOOOOOOOOOOOOOOOOOOOOOOOOOOOOOOOOOOOOOOOOOOOOOOOO$",
"$OOOOOOOOOOOOOOOOOOOOOOOOOOOOOOOOOOOOOOOOOOOOOOOOOOOOOOOOOOOOOO$",
"$OOOOOOOOOOOOOOOOOOOOOOOOOOOOOOOOOOOOOOOOOOOOOOOOOOOOOOOOOOOOOO$",
"$OOOOOOOOOOOOOOOOOOOOOOOOOOOOOOOOOOOOOOOOOOOOOOOOOOOOOOOOOOOOOO$",
"$OOOOOOOOOOOOOOOOOOOOOOOOOOOOOOOOOOOOOOOOOOOOOOOOOOOOOOOOOOOOOO$",
"$OOOOOOOOOOOOOOOOOOOOOOOOOOOOOOOOOOOOOOOOOOOOOOOOOOOOOOOOOOOOOO$",
"$OOOOOOOOOOOOOOOOOOO=X                     X@OOOOOOOOOOOOOOOOOO$",
"$OOOOOOOOOOOOOOOOOO+                        XOOOOOOOOOOOOOOOOOO$",
"$OOOOOOOOOOOOOOOOOO-                        XOOOOOOOOOOOOOOOOOO$",
"$OOOOOOOOOOOOOOOOOO=                       X@OOOOOOOOOOOOOOOOOO$",
"$OOOOOOOOOOOOOOOOOO;    .+OOOOOOOOOOOOOOOOOOOOOOOOOOOOOOOOOOOOO$",
"$OOOOOOOOOOOOOOOOOO;    XOOOOOOOOOOOOOOOOOOOOOOOOOOOOOOOOOOOOOO$",
"$OOOOOOOOOOOOOOOOOO;    XOOOOOOOOOOOOOOOOOOOOOOOOOOOOOOOOOOOOOO$",
"$OOOOOOOOOOOOOOOOOO;    XOOOOOOOOOOOOOOOOOOOOOOOOOOOOOOOOOOOOOO$",
"$OOOOOOOOOOOOOOOOOO;    .+OOOOOOOOOOOOOOOOOOOOOOOOOOOOOOOOOOOOO$",
"$OOOOOOOOOOOOOOOOOO=                        ;OOOOOOOOOOOOOOOOOO$",
"$OOOOOOOOOOOOOOOOOO-                        .OOOOOOOOOOOOOOOOOO$",
"$OOOOOOOOOOOOOOOOOO+                        .OOOOOOOOOOOOOOOOOO$",
"$OOOOOOOOOOOOOOOOOOO=X                      ;OOOOOOOOOOOOOOOOOO$",
"$OOOOOOOOOOOOOOOOOOOOOOOOOOOO;    %OOOOOOOOOOOOOOOOOOOOOOOOOOOO$",
"$OOOOOOOOOOOOOOOOOOOOOOOOOOOO;    %OOOOOOOOOOOOOOOOOOOOOOOOOOOO$",
"$OOOOOOOOOOOOOOOOOOOOOOOOOOOO;    %OOOOOOOOOOOOOOOOOOOOOOOOOOOO$",
"$OOOOOOOOOOOOOOOOOOOOOOOOOOOO;    %OOOOOOOOOOOOOOOOOOOOOOOOOOOO$",
"$OOOOOOOOOOOOOO:                                #OOOOOOOOOOOOOO$",
"$OOOOOOOOOOOOOO&                                 +OOOOOOOOOOOOO$",
"$OOOOOOOOOOOOOO&                                 +OOOOOOOOOOOOO$",
"$OOOOOOOOOOOOOO:                                #OOOOOOOOOOOOOO$",
"$OOOOOOOOOOOOOOOOOOOOOOOOOOOOOOOOOOOOOOOOOOOOOOOOOOOOOOOOOOOOOO$",
"$OOOOOOOOOOOOOOOOOOOOOOOO=XX        &XXOOOOOOOOOOOOOOOOOOOOOOOO$",
"$OOOOOOOOOOOOOOOOOOOOO+#                %=OOOOOOOOOOOOOOOOOOOOO$",
"$OOOOOOOOOOOOOOOOOOOO=                    &OOOOOOOOOOOOOOOOOOOO$",
"$OOOOOOOOOOOOOOOOOOO=                      &OOOOOOOOOOOOOOOOOOO$",
"$OOOOOOOOOOOOOOOOOOOX     %X:OOOOOOOX#      -OOOOOOOOOOOOOOOOOO$",
"$OOOOOOOOOOOOOOOOOO:     ;OOOOOOOOOOOO@X    *OOOOOOOOOOOOOOOOOO$",
"$OOOOOOOOOOOOOOOOOO;    oOOOOOOOOOOOOOO=    %OOOOOOOOOOOOOOOOOO$",
"$OOOOOOOOOOOOOOOOOO;    oOOOOOOOOOOOOOO=    %OOOOOOOOOOOOOOOOOO$",
"$OOOOOOOOOOOOOOOOOO:     ;OOOOOOOOOOOO@X    *OOOOOOOOOOOOOOOOOO$",
"$OOOOOOOOOOOOOOOOOOOX     %X:OOOOOOOX#      -OOOOOOOOOOOOOOOOOO$",
"$OOOOOOOOOOOOOOOOOOO=                      &OOOOOOOOOOOOOOOOOOO$",
"$OOOOOOOOOOOOOOOOOOOO=                    &OOOOOOOOOOOOOOOOOOOO$",
"$OOOOOOOOOOOOOOOOOOOOO+#                %=OOOOOOOOOOOOOOOOOOOOO$",
"$OOOOOOOOOOOOOOOOOOOOOOOO=XX        &XXOOOOOOOOOOOOOOOOOOOOOOOO$",
"$OOOOOOOOOOOOOOOOOOOOOOOOOOOOOOOOOOOOOOOOOOOOOOOOOOOOOOOOOOOOOO$",
"$OOOOOOOOOOOOOOOOOOOOOOOOOOOOOOOOOOOOOOOOOOOOOOOOOOOOOOOOOOOOOO$",
"$OOOOOOOOOOOOOOOOOOOOOOOOOOOOOOOOOOOOOOOOOOOOOOOOOOOOOOOOOOOOOO$",
"$OOOOOOOOOOOOOOOOOOOOOOOOOOOOOOOOOOOOOOOOOOOOOOOOOOOOOOOOOOOOOO$",
"$OOOOOOOOOOOOOOOOOOOOOOOOOOOOOOOOOOOOOOOOOOOOOOOOOOOOOOOOOOOOOO$",
"$OOOOOOOOOOOOOOOOOOOOOOOOOOOOOOOOOOOOOOOOOOOOOOOOOOOOOOOOOOOOOO$",
"$OOOOOOOOOOOOOOOOOOOOOOOOOOOOOOOOOOOOOOOOOOOOOOOOOOOOOOOOOOOOOO$",
"$OOOOOOOOOOOOOOOOOOOOOOOOOOOOOOOOOOOOOOOOOOOOOOOOOOOOOOOOOOOOOO$",
"$OOOOOOOOOOOOOOOOOOOOOOOOOOOOOOOOOOOOOOOOOOOOOOOOOOOOOOOOOOOOOO$",
"$OOOOOOOOOOOOOOOOOOOOOOOOOOOOOOOOOOOOOOOOOOOOOOOOOOOOOOOOOOOOOO$",
"$OOOOOOOOOOOOOOOOOOOOOOOOOOOOOOOOOOOOOOOOOOOOOOOOOOOOOOOOOOOOOO$",
"$OOOOOOOOOOOOOOOOOOOOOOOOOOOOOOOOOOOOOOOOOOOOOOOOOOOOOOOOOOOOOO$",
"$OOOOOOOOOOOOOOOOOOOOOOOOOOOOOOOOOOOOOOOOOOOOOOOOOOOOOOOOOOOOOO$",
"$$$$$$$$$$$$$$$$$$$$$$$$$$$$$$$$$$$$$$$$$$$$$$$$$$$$$$$$$$$$$$$$"
};
