/* XPM */
static char *_e01d7eb733244b3a8bc3f0ffbafccf03LINE9TzZXKQcaAC[] = {
/* columns rows colors chars-per-pixel */
"64 64 228 2 ",
"   c #170808",
".  c #1E1615",
"X  c #341209",
"o  c #221C1B",
"O  c #2A231D",
"+  c #151821",
"@  c #172736",
"#  c #2C2626",
"$  c #312724",
"%  c #3A312F",
"&  c #2A2A36",
"*  c #451706",
"=  c #4A2213",
"-  c #443B38",
";  c #622F21",
":  c #183057",
">  c #213450",
",  c #1D3B6E",
"<  c #364559",
"1  c #1D416E",
"2  c #2D466B",
"3  c #294677",
"4  c #564A4A",
"5  c #6E605C",
"6  c #535C6D",
"7  c #4E5575",
"8  c #615B78",
"9  c #74646A",
"0  c #96685A",
"q  c #9D5376",
"w  c #B2546E",
"e  c #897870",
"r  c #A56B6E",
"t  c #D15771",
"y  c #E95F75",
"u  c #CF7579",
"i  c #87807E",
"p  c #A68379",
"a  c #BA847C",
"s  c #C78779",
"d  c #D48A7D",
"f  c #193987",
"g  c #164389",
"h  c #164C99",
"j  c #1A4E9B",
"k  c #18519C",
"l  c #294781",
"z  c #2A5E8B",
"x  c #25499C",
"c  c #275899",
"v  c #326D99",
"b  c #194FA0",
"n  c #1652A5",
"m  c #1B53A5",
"M  c #1A58A8",
"N  c #1B5AAB",
"B  c #1C4FB4",
"V  c #1C5FB2",
"C  c #2B55A7",
"Z  c #2458AC",
"A  c #245DB3",
"S  c #1761AF",
"D  c #1D63B5",
"F  c #1B68BC",
"G  c #2361AE",
"H  c #3468AA",
"J  c #2264B6",
"K  c #236ABC",
"L  c #2B6DBD",
"P  c #3774B5",
"I  c #53598F",
"U  c #604D80",
"Y  c #5B6F92",
"T  c #73738E",
"R  c #4A6EA2",
"E  c #5878AC",
"W  c #4A7CB6",
"Q  c #787FA0",
"!  c #1E6CC2",
"~  c #1B73C7",
"^  c #1B7ACD",
"/  c #226EC4",
"(  c #276FCA",
")  c #2372C4",
"_  c #2274CA",
"`  c #2979C8",
"'  c #3477C9",
"]  c #237DD7",
"[  c #247CD4",
"{  c #317DD3",
"}  c #837D9D",
"|  c #ED6A84",
" . c #3785A3",
".. c #7B8396",
"X. c #5A8CB9",
"o. c #6E8DB0",
"O. c #63A6B9",
"+. c #1983D2",
"@. c #348FCE",
"#. c #2482DC",
"$. c #2987DA",
"%. c #2591DC",
"&. c #1A9DEB",
"*. c #268AE5",
"=. c #278AE6",
"-. c #2A8BE4",
";. c #3E8CE0",
":. c #2492ED",
">. c #2A97EA",
",. c #2A93EC",
"<. c #3697EA",
"1. c #2997F5",
"2. c #2C9AF5",
"3. c #269AF8",
"4. c #329DF5",
"5. c #1BA9E9",
"6. c #2BA8E9",
"7. c #37A7EA",
"8. c #2DA3F5",
"9. c #25A4FC",
"0. c #29A6F8",
"q. c #25ADFC",
"w. c #2CACFC",
"e. c #31A3F6",
"r. c #34ABF4",
"t. c #37AAF9",
"y. c #27B3FF",
"u. c #2BB4FD",
"i. c #2BBCFE",
"p. c #38B5F9",
"a. c #34BBFB",
"s. c #478ED3",
"d. c #4A91D8",
"f. c #569AD6",
"g. c #6F91C3",
"h. c #6794C8",
"j. c #55A4C6",
"k. c #6EA4DF",
"l. c #75A8D8",
"z. c #479EE8",
"x. c #509CE1",
"c. c #53A7EE",
"v. c #47A7F5",
"b. c #57ABF4",
"n. c #46B9FB",
"m. c #55BDF8",
"M. c #66AAE7",
"N. c #72B3ED",
"B. c #78B5E8",
"V. c #1DC3F9",
"C. c #2BC4FF",
"Z. c #2CCCFF",
"A. c #35C4FE",
"S. c #3DC6FB",
"D. c #32CCFF",
"F. c #2CD2FF",
"G. c #2FD9FF",
"H. c #37D4FE",
"J. c #2EE0FF",
"K. c #44C4FB",
"L. c #48C6FA",
"P. c #4ACCFC",
"I. c #5CC8F9",
"U. c #47D9FF",
"Y. c #57DAFC",
"T. c #64D7FB",
"R. c #73DCFC",
"E. c #4BE4FE",
"W. c #59E9FE",
"Q. c #77EAFC",
"!. c #74F2FE",
"~. c #7AF2FE",
"^. c #958886",
"/. c #949498",
"(. c #BF8F88",
"). c #A98F90",
"_. c #8A98B1",
"`. c #A796A9",
"'. c #B2A9AA",
"]. c #CA978A",
"[. c #DB9889",
"{. c #C69891",
"}. c #E29387",
"|. c #D7A499",
" X c #EAA897",
".X c #F2AC9B",
"XX c #E8B19D",
"oX c #F3B19F",
"OX c #CCB5AC",
"+X c #D2B1AC",
"@X c #E8B7A6",
"#X c #F7BAA7",
"$X c #DAC3B7",
"%X c #E8C2B1",
"&X c #FBC4B3",
"*X c #F6C8B6",
"=X c #FBCCBB",
"-X c #8EA7C9",
";X c #8DB2D6",
":X c #ACB4CC",
">X c #8ABEEA",
",X c #86BFF2",
"<X c #A4C3DA",
"1X c #BCC3D4",
"2X c #B7C7D8",
"3X c #9AC6E7",
"4X c #85C5F4",
"5X c #A9CDEE",
"6X c #86EEFE",
"7X c #85F3FD",
"8X c #D6C8CA",
"9X c #C8CBD8",
"0X c #CED4DE",
"qX c #D3D5DF",
"wX c #EED5CD",
"eX c #FCD5C5",
"rX c #F5D6C8",
"tX c #FDDCCC",
"yX c #F8E0CF",
"uX c #FDE3D4",
"iX c #FCE8D9",
"pX c #C9D1E0",
"aX c #D4D7E1",
"sX c #D6DAE3",
"dX c #DBDCE1",
"fX c #DBE4EB",
"gX c #D9F0F6",
"hX c #E5F0F4",
/* pixels */
"1.1.1.1.1.1.1.1.1.1.1.1.1.1.1.1.1.1.1.1.1.1.1.1.1.1.1.1.1.1.1.1.1.1.1.1.1.1.1.1.1.1.1.1.1.1.1.1.1.1.1.1.1.1.1.1.1.1.1.1.1.1.1.1.",
"1.1.1.1.1.1.1.1.1.1.1.1.1.1.1.1.1.1.1.1.1.1.1.1.1.1.1.1.1.1.1.1.1.1.1.1.1.1.1.1.1.1.1.1.1.1.1.1.1.1.1.1.1.1.1.1.1.1.1.1.1.1.1.1.",
"1.1.1.1.1.1.1.1.1.1.1.1.1.1.1.1.1.1.1.1.1.1.1.1.1.1.1.1.1.1.1.1.1.1.1.1.1.1.1.1.1.1.1.1.1.1.1.1.1.1.1.1.1.1.1.1.1.1.1.1.1.1.1.1.",
"1.1.1.1.1.1.1.1.1.1.1.1.1.1.1.1.1.1.1.1.1.1.1.1.1.1.1.1.1.1.1.1.1.1.1.1.1.1.1.1.1.1.1.1.1.1.1.1.1.1.1.1.1.1.1.1.1.1.1.1.1.1.1.1.",
"1.1.1.1.1.1.1.1.1.1.1.1.1.1.1.1.1.1.1.1.1.1.1.1.1.1.1.1.1.1.1.1.1.1.1.1.1.1.1.1.1.1.1.1.1.1.1.1.1.1.1.1.1.1.1.1.1.1.1.1.1.1.1.1.",
"1.1.1.1.1.1.1.1.1.1.1.1.1.1.1.1.1.1.1.1.1.1.1.1.1.1.1.1.1.1.1.1.1.1.1.1.1.1.1.1.1.1.1.1.1.1.1.1.1.1.1.1.1.1.1.1.1.1.1.1.1.1.1.1.",
"1.1.1.1.1.1.1.1.1.1.1.1.1.1.1.1.1.1.1.1.1.1.1.1.1.1.1.1.1.1.1.1.1.1.1.1.1.1.1.1.1.1.1.1.1.1.1.1.1.1.1.1.1.1.1.1.1.1.1.1.1.1.1.1.",
"1.1.1.1.1.1.1.1.1.1.1.1.1.1.1.1.1.1.1.1.1.1.1.1.1.1.1.1.1.1.1.1.1.1.1.1.1.1.1.1.1.1.1.1.1.1.1.1.1.1.1.1.1.1.1.1.1.1.1.1.1.1.1.1.",
"1.1.1.1.1.1.1.1.1.1.1.1.1.1.1.1.1.1.1.1.1.1.1.1.1.1.1.1.1.1.1.1.1.1.1.1.1.1.1.1.1.1.1.1.1.1.1.1.1.1.1.1.1.1.1.1.1.1.1.1.1.1.1.1.",
"1.1.1.1.1.1.1.1.1.1.1.1.1.1.1.1.1.1.1.1.1.1.1.1.1.1.1.1.1.1.1.1.1.1.1.1.1.1.1.1.1.1.1.1.1.1.1.1.1.1.1.1.1.1.1.1.1.1.1.1.1.1.1.1.",
"1.1.1.1.1.1.1.1.1.1.1.1.1.1.1.1.1.1.1.1.1.1.1.1.1.1.1.1.2.1.2.2.4.1.1.1.1.1.1.1.1.1.1.1.1.1.1.1.1.1.1.1.1.1.1.1.1.1.1.1.1.1.1.1.",
"1.1.1.1.1.1.1.1.1.1.1.1.1.1.1.1.1.1.1.1.1.1.1.1.1.1.r.L.Y.!.!.~.~.~.Q.R.m.4.1.1.1.1.1.1.1.1.1.1.1.1.1.1.1.1.1.1.1.1.1.1.1.1.1.1.",
"1.1.1.1.1.1.1.1.1.1.1.1.1.1.1.1.1.1.1.1.1.1.1.1.t.Y.!.W.W.E.U.H.E.E.E.W.!.7XT.4.1.1.1.1.1.1.1.1.1.1.1.1.1.1.1.1.1.1.1.1.1.1.1.1.",
"1.1.1.1.1.1.1.1.1.1.1.1.1.1.1.1.1.1.1.1.1.1.1.L.W.Y.H.H.C.Z.Z.Z.Z.Z.F.F.H.W.!.6Xv.1.1.1.1.1.1.1.1.1.1.1.1.1.1.1.1.1.1.1.1.1.1.1.",
"1.1.1.1.1.1.1.1.1.1.1.1.1.1.1.1.1.1.1.1.1.1.P.U.A.C.G.J.F.Z.F.F.F.F.Z.Z.Z.C.D.E.7XI.1.1.1.1.1.1.1.1.1.1.1.1.1.1.1.1.1.1.1.1.1.1.",
"1.1.1.1.1.1.1.1.1.1.1.1.1.1.1.1.1.1.1.1.,.K.K.r.u.C.D.F.D.Z.Z.Z.Z.Z.C.C.Z.C.C.i.K.Q.I.1.1.1.1.1.1.1.1.1.1.1.1.1.1.1.1.1.1.1.1.1.",
"1.1.1.1.1.1.1.1.1.1.1.1.1.1.1.1.1.1.1.t.K.n.0.w.u.A.H.U.H.A.C.C.i.C.i.i.i.i.i.y.w.p.R.m.8.1.1.1.1.1.1.1.1.1.1.1.1.1.1.1.1.1.1.1.",
"1.1.1.1.1.1.1.1.1.1.1.1.1.1.1.1.1.e.P.P.L.8.e.w.i.U.E.Y.P.A.i.u.y.y.y.y.y.y.y.y.9.2.t.Y.T.I.2.1.1.1.1.1.1.1.1.1.1.1.1.1.1.1.1.1.",
"1.1.1.1.1.1.1.1.1.1.1.1.1.1.1.1.p.P.a.u.p.8.e.q.u.a.p.S.P.a.u.q.y.q.r.p.y.5.6.u.3.:.,.p.i.A.Y.t.1.1.1.1.1.1.1.1.1.1.1.1.1.1.1.1.",
"1.1.1.1.1.1.1.1.1.1.1.1.1.1.1.e.K.p.p.a.7.8.1.2. . . .C.A.7.9.9.9.8.a.y.6. .v @.:.=.=.r.i.u.w.S.2.1.1.1.1.1.1.1.1.1.1.1.1.1.1.1.",
"1.1.1.1.1.1.1.1.1.1.1.1.1.1.1.p.w.t.n.P.<.,.-.> $ # # 2 _ 6.0.q.q.r.%.c # # $ o z #.] 7.K.w.9.9.t.3.1.1.1.1.1.1.1.1.1.1.1.1.1.1.",
"1.1.1.1.1.1.1.1.1.1.1.1.1.1.1.w.4.t.t.r.-.2.z O O % 4 . & G +.%.%.F 3 o # 4 $ O & / ] -.w.1.1.:.2.1.1.1.1.1.1.1.1.1.1.1.1.1.1.1.",
"1.1.1.1.1.1.1.1.1.1.1.1.1.1.2.,.:.,.,.$.$.-.z 4 0 wXuXOX% 9 Q Q o...o ^.uXrXOX% 8 Z ~ ] =.=.#.#.=.1.1.1.1.1.1.1.1.1.1.1.1.1.1.1.",
"1.1.1.1.1.1.1.1.1.1.1.1.1.1.2.] [ #.$.[ [ [ I @X%XeXuXrX^.& wXiXuX5 5 $XtXrX=X@XXXH / _ ] _ _ ! / 1.1.1.1.1.1.1.1.1.1.1.1.1.1.1.",
"1.1.1.1.1.1.1.1.1.1.3.1.1.1.1./ / _ _ ) _ _ Q *X*XeXuX'.- 4 $XiXiXe ^.. wXeX=X=X@XH / J ! ! F J K 1.1.1.1.1.1.1.1.1.1.1.1.1.1.1.",
"1.1.1.1.1.1.1.1.1.1.1.1.1.1.1._ D J F K / _ } &X*XeXtXe . p yXiXiXtX#   tXrX*X*X@XP J A D V N M _ 1.1.1.1.1.1.1.1.1.1.1.1.1.1.1.",
"1.1.1.1.1.1.1.1.1.1.1.1.1.1.1.=.M M D D K ! Q @X&X=XeXe   p tXuXyXrX    eX=X*X#X|.K N N M M M M :.1.1.1.1.1.1.1.1.1.1.1.1.1.1.1.",
"1.1.1.1.1.1.1.1.1.1.1.1.1.1.1.1.] j j M J A W  X@X&X&X0   p =X=X=X=X    =X&X#XXX)./ n A n j j #.1.1.1.1.1.1.1.1.1.1.1.1.1.1.1.1.",
"1.1.1.1.1.1.1.1.1.1.1.1.1.1.1.1.1.$.m j L m _ (. X#X&X0 X p &X&X&X&XX X &X#XoX[.X.V b A g m =.1.1.1.1.1.1.1.1.1.1.1.1.1.1.1.1.1.",
"1.1.1.1.1.1.1.1.1.1.1.1.1.1.1.1.1.1.:./ L M / } }.}.oXr * s #X&X#X&X= ; #X.X}.s ( b m A _ 1.1.1.1.1.1.1.1.1.1.1.1.1.1.1.1.1.1.1.",
"1.1.1.1.1.1.1.1.1.1.1.1.1.1.1.1.1.1.1.1.$.J I y | | [.}.s .X.X.X X.X].[.}.u | y q n K ,.1.1.1.1.1.1.1.1.1.1.1.1.1.1.1.1.1.1.1.1.",
"1.1.1.1.1.1.1.1.1.1.1.1.1.1.1.1.1.1.1.1.1.[ C w t w ^.s d d d d d d d d a q t w 8 A =.1.1.1.1.1.1.1.1.1.1.1.1.1.1.1.1.1.1.1.1.1.",
"1.1.1.1.1.1.1.1.1.1.1.1.1.1.1.1.1.1.1.1.1.1.=.B k k +.@.j.o././././.O.X.+.F n n A =.1.1.1.1.1.1.1.1.1.1.1.1.1.1.1.1.1.1.1.1.1.1.",
"1.1.1.1.1.1.1.1.1.1.1.1.1.1.1.1.1.1.1.1.1.1.1.1.) m g h M D ~ ^ +.~ M n n m M ) 1.1.1.1.1.1.1.1.1.1.1.1.1.1.1.1.1.1.1.1.1.1.1.1.",
"1.1.1.1.1.1.1.1.1.1.1.1.1.1.1.1.1.1.1.1.1.1.1.1.1.=./ Z k j x x j m C m A ( =.3.1.1.1.1.1.1.1.1.1.1.1.1.1.1.1.1.1.1.1.1.1.1.1.1.",
"1.1.1.1.1.1.1.1.1.1.1.1.1.1.1.1.1.1.1.1.1.1.1.1.1.1.1.,.' c x x x x , , =.1.1.1.1.1.1.1.1.1.1.1.1.1.1.1.1.1.1.1.1.1.1.1.1.1.1.1.",
"1.1.1.1.1.1.1.1.1.1.1.1.1.1.1.1.1.1.1.1.1.1.1.1.1.1.1.d.R C f f , f @ @ d.1.1.1.1.1.1.1.1.1.1.1.1.1.1.1.1.1.1.1.1.1.1.1.1.1.1.1.",
"1.1.1.1.1.1.1.1.1.1.1.1.1.1.1.1.1.1.1.1.1.1.1.1.1.1.t.`.8 B B A A x @ 4 `.4.1.1.1.1.1.1.1.1.1.1.1.1.1.1.1.1.1.1.1.1.1.1.1.1.1.1.",
"1.1.1.1.1.1.1.1.1.1.1.1.1.1.1.1.1.1.1.1.1.1.1.1.2.2.:X{.T L @.7.d., @ Y oXN.1.1.1.1.1.1.1.1.1.1.1.1.1.1.1.1.1.1.1.1.1.1.1.1.1.1.",
"1.1.1.1.1.1.1.1.1.1.1.1.1.1.1.1.1.1.1.1.1.1.1.1.2.,X+X].W @.6.j.g...> { +X8X2.1.1.1.1.1.1.1.1.1.1.1.1.1.1.1.1.1.1.1.1.1.1.1.1.1.",
"1.1.1.1.1.1.1.1.1.1.1.1.1.1.1.1.1.1.1.1.1.1.1.1.b.8X|.`.@.$.P 6 < 1 < H o.*X3Xv.1.1.1.1.1.1.1.1.1.1.1.1.1.1.1.1.1.1.1.1.1.1.1.1.",
"1.1.1.1.1.1.1.1.1.1.1.1.1.1.1.1.1.1.1.1.1.1.1.v.9XaX8Xg.` { < 7 > : z 7 ' qX0X4X1.1.1.1.1.1.1.1.1.1.1.1.1.1.1.1.1.1.1.1.1.1.1.1.",
"1.1.1.1.1.1.1.1.1.1.1.1.1.1.1.1.1.1.1.1.1.1.1.4X0XpX:XX., , & Y > : o.3 L 2XqX5X1.1.1.2.1.1.1.1.1.1.1.1.1.1.1.1.1.1.1.1.1.1.1.1.",
"1.1.1.1.1.1.1.1.1.1.1.1.1.1.1.1.1.1.1.1.1.1.v.fXdXdXfXX.+ + + 4 T '.6 c E hXqXfXb.1.1.1.1.1.1.1.1.1.1.1.1.1.1.1.1.1.1.1.1.1.1.1.",
"1.1.1.1.1.1.1.1.1.1.1.1.1.1.1.1.1.1.1.1.1.1.N.qXdXqXdX:X3 : 3 l 1 2 3 3 1XsXqXfXN.3.1.1.1.1.1.1.1.1.1.1.1.1.1.1.1.1.1.1.1.1.1.1.",
"1.1.1.1.1.1.1.1.1.1.1.1.1.1.1.1.1.1.1.1.1.1.,X0XaX9XqX5XC H H C L 3 c ' <X0X1XsX4X3.1.1.1.1.1.1.1.1.1.1.1.1.1.1.1.1.1.1.1.1.1.1.",
"1.1.1.1.1.1.1.1.1.1.1.1.1.1.1.1.1.1.1.1.1.1.N.:X9X:X9XB.R Y W $.:.P 8 T :X:X1X0Xb.1.1.1.1.1.1.1.1.1.1.1.1.1.1.1.1.1.1.1.1.1.1.1.",
"1.1.1.1.1.1.1.1.1.1.1.1.1.1.1.1.1.1.1.1.1.4.4.;X1X:X-Xe.`.{._.1.1.v.].XX-X:X:XM.2.1.1.1.1.1.1.1.1.1.1.1.1.1.1.1.1.1.1.1.1.1.1.1.",
"1.1.1.1.1.1.1.1.1.1.1.1.1.1.1.1.1.1.1.1.1.1.1.1.z.<.4.<.'.#Xg.1.>.+.{.@Xl.1.1.1.1.1.1.1.1.1.1.1.1.1.1.1.1.1.1.1.1.1.1.1.1.1.1.1.",
"1.1.1.1.1.1.1.1.1.1.1.1.1.1.1.1.1.1.1.1.1.1.1.1.3.1.1.4XhXfXx.2.1.@.3XgXgXt.w.3.1.1.1.1.1.1.1.1.1.1.1.1.1.1.1.1.1.1.1.1.1.1.1.1.",
"1.1.1.1.1.1.1.1.1.1.1.1.1.1.1.1.1.1.1.1.1.1.1.1.1.8.a.S.S.T.s.,.>.L f.N.>.q.V.i.4.1.1.1.1.1.1.1.1.1.1.1.1.1.1.1.1.1.1.1.1.1.1.1.",
"1.1.1.1.1.1.1.1.1.1.1.1.1.1.1.1.1.1.1.1.1.1.1.1.1.*.&.5.&.] ' -.<.' ;.S F ^ ^ ~ =.1.1.1.1.1.1.1.1.1.1.1.1.1.1.1.1.1.1.1.1.1.1.1.",
"1.1.1.1.1.1.1.1.1.1.1.1.1.1.1.1.1.1.1.1.1.1.1.1.2.M M S S M D s.c.h.) g h j W X.] 1.1.1.1.1.1.1.1.1.1.1.1.1.1.1.1.1.1.1.1.1.1.1.",
"1.1.1.1.1.1.1.1.1.1.1.1.1.1.1.1.1.1.1.1.1.1.1.1.4.R ;X;XX.v o.N.2.x.>X_.o.;X2X<Xc.1.1.1.1.1.1.1.1.1.1.1.1.1.1.1.1.1.1.1.1.1.1.1.",
"1.1.1.1.1.1.1.1.1.1.1.1.1.1.1.1.1.1.1.1.1.1.1.1.2.f.k.l.B.l.M.1.1.1.1.1.,.<.<.1.1.1.1.1.1.1.1.1.1.1.1.1.1.1.1.1.1.1.1.1.1.1.1.1.",
"1.1.1.1.1.1.1.1.1.1.1.1.1.1.1.1.1.1.1.1.1.1.1.1.1.1.1.1.2.1.2.1.1.1.1.1.1.1.:.1.1.1.1.1.1.1.1.1.1.1.1.1.1.1.1.1.1.1.1.1.1.1.1.1.",
"1.1.1.1.1.1.1.1.1.1.1.1.1.1.1.1.1.1.1.1.1.1.1.1.1.1.1.1.1.1.1.1.1.1.1.1.1.1.1.1.1.1.1.1.1.1.1.1.1.1.1.1.1.1.1.1.1.1.1.1.1.1.1.1.",
"1.1.1.1.1.1.1.1.1.1.1.1.1.1.1.1.1.1.1.1.1.1.1.1.1.1.1.1.1.1.1.1.1.1.1.1.1.1.1.1.1.3.1.1.1.1.1.1.1.1.1.1.1.1.1.1.1.1.1.1.1.1.1.1.",
"1.1.1.1.1.1.1.1.1.1.1.1.1.1.1.1.1.1.1.1.1.1.1.1.1.1.1.1.1.1.1.1.1.1.1.1.1.1.1.1.1.1.1.1.1.1.1.1.1.1.1.1.1.1.1.1.1.1.1.1.1.1.1.1.",
"1.1.1.1.1.1.1.1.1.1.1.1.1.1.1.1.1.1.1.1.1.1.1.1.1.1.1.1.1.1.1.1.1.1.1.1.1.1.1.1.1.1.1.1.1.1.1.1.1.1.1.1.1.1.1.1.1.1.1.1.1.1.1.1.",
"1.1.1.1.1.1.1.1.1.1.1.1.1.1.1.1.1.1.1.1.1.1.1.1.1.1.1.1.1.1.1.1.1.1.1.1.1.1.1.1.1.1.1.1.1.1.1.1.1.1.1.1.1.1.1.1.1.1.1.1.1.1.1.1.",
"1.1.1.1.1.1.1.1.1.1.1.1.1.1.1.1.1.1.1.1.1.1.1.1.1.1.1.1.1.1.1.1.1.1.1.1.1.1.1.1.1.1.1.1.1.1.1.1.1.1.1.1.1.1.1.1.1.1.1.1.1.1.1.1.",
"1.1.1.1.1.1.1.1.1.1.1.1.1.1.1.1.1.1.1.1.1.1.1.1.1.1.1.1.1.1.1.1.1.1.1.1.1.1.1.1.1.1.1.1.1.1.1.1.1.1.1.1.1.1.1.1.1.1.1.1.1.1.1.1.",
"1.1.1.1.1.1.1.1.1.1.1.1.1.1.1.1.1.1.1.1.1.1.1.1.1.1.1.1.1.1.1.1.1.1.1.1.1.1.1.1.1.1.1.1.1.1.1.1.1.1.1.1.1.1.1.1.1.1.1.1.1.1.1.1."
};
