/* XPM */
static char *e685341c4eb14ce2ab219db45e0b95eaDWQH9Eovrp2Uglw7[] = {
/* columns rows colors chars-per-pixel */
"64 64 235 2 ",
"   c #373537",
".  c #583027",
"X  c #6E3726",
"o  c #784330",
"O  c #6D535B",
"+  c #516D6D",
"@  c #75726C",
"#  c #8E301F",
"$  c #AF231D",
"%  c #A7281B",
"&  c #B6251B",
"*  c #B92C1C",
"=  c #AD311D",
"-  c #B7311A",
";  c #902C24",
":  c #AA2B25",
">  c #AD3127",
",  c #B83525",
"<  c #C1220E",
"1  c #D1230E",
"2  c #C62B19",
"3  c #D72B14",
"4  c #CA331B",
"5  c #D6361D",
"6  c #DB351B",
"7  c #EC3617",
"8  c #E83818",
"9  c #CB2C23",
"0  c #C63626",
"q  c #D33B24",
"w  c #DA3B25",
"e  c #F13F21",
"r  c #82421C",
"t  c #834E23",
"y  c #99592A",
"u  c #944F32",
"i  c #AD4B2E",
"p  c #A74937",
"a  c #B94A39",
"s  c #AB5235",
"d  c #9E652F",
"f  c #A66439",
"g  c #F2441D",
"h  c #C9442A",
"j  c #D74429",
"k  c #D9522E",
"l  c #CF4B35",
"z  c #D85B3B",
"x  c #E64629",
"c  c #EA4C2A",
"v  c #F54922",
"b  c #F54C2B",
"n  c #EB542C",
"m  c #F75229",
"M  c #F4542B",
"N  c #FB5A2E",
"B  c #E94931",
"V  c #E95736",
"C  c #F55936",
"Z  c #FC5C32",
"A  c #C2683A",
"S  c #FE602E",
"D  c #FD6334",
"F  c #FE6B35",
"G  c #F3643C",
"H  c #FC6439",
"J  c #FD6A3B",
"K  c #FF7136",
"L  c #FE743B",
"P  c #903D42",
"I  c #964647",
"U  c #B2564A",
"Y  c #98684D",
"T  c #B97050",
"R  c #8B5665",
"E  c #985D67",
"W  c #8E7279",
"Q  c #AC7368",
"!  c #C35B47",
"~  c #D95946",
"^  c #ED5C45",
"/  c #F15E43",
"(  c #C76745",
")  c #D66346",
"_  c #CA6C58",
"`  c #D47253",
"'  c #E76447",
"]  c #FA6D45",
"[  c #FE7344",
"{  c #FE7B45",
"}  c #FD7A4A",
"|  c #E97456",
" . c #FC7B55",
".. c #C87C6A",
"X. c #DA7D66",
"o. c #E47C69",
"O. c #F07463",
"+. c #FF813D",
"@. c #A98972",
"#. c #D68755",
"$. c #FC8645",
"%. c #FE844B",
"&. c #FF8C4B",
"*. c #FE944A",
"=. c #FF984C",
"-. c #FE8B52",
";. c #FE8854",
":. c #FC9353",
">. c #FC965A",
",. c #FEA658",
"<. c #FEB55C",
"1. c #D58C6E",
"2. c #CB8671",
"3. c #D6957D",
"4. c #E3856B",
"5. c #F78B68",
"6. c #FC9964",
"7. c #F2946F",
"8. c #E9957C",
"9. c #CFAB7A",
"0. c #FFA36B",
"q. c #FDB865",
"w. c #EAAD72",
"e. c #FCAA7B",
"r. c #F6CD72",
"t. c #FEEB7E",
"y. c #5B799D",
"u. c #6E718F",
"i. c #846A81",
"p. c #6282AE",
"a. c #688FAE",
"s. c #4DA9AB",
"d. c #7CA7AB",
"f. c #2997F5",
"g. c #2C9DF6",
"h. c #3DA5EA",
"j. c #2EA2F6",
"k. c #31A6F7",
"l. c #33ABF7",
"z. c #35A9F6",
"x. c #34ADF8",
"c. c #36B0F7",
"v. c #3CB4F5",
"b. c #3DB8F7",
"n. c #37B1F8",
"m. c #39B5F8",
"M. c #3CBBF9",
"N. c #4E9ACA",
"B. c #5595CA",
"V. c #489CD9",
"C. c #59AFDC",
"Z. c #5CB7DC",
"A. c #67B0D3",
"S. c #43A4E5",
"D. c #4BB9EC",
"F. c #41B2F1",
"G. c #3FC1FA",
"H. c #71C9D2",
"J. c #58C2E8",
"K. c #49C9F6",
"L. c #41C5FA",
"P. c #45CCFB",
"I. c #55CDF1",
"U. c #47D0FC",
"Y. c #48D1FC",
"T. c #49D3FC",
"R. c #49D4FC",
"E. c #4AD5FC",
"W. c #4BD7FC",
"Q. c #4CD9FC",
"!. c #4DDAFC",
"~. c #4DDAFD",
"^. c #4EDBFD",
"/. c #4EDDFD",
"(. c #4FDEFD",
"). c #50DFFD",
"_. c #63C4E1",
"`. c #4FE0FD",
"'. c #50E0FD",
"]. c #51E2FD",
"[. c #54E6FE",
"{. c #53E8FE",
"}. c #55EBFE",
"|. c #56EDFF",
" X c #58EFFF",
".X c #59F1FF",
"XX c #8F9194",
"oX c #BA8C87",
"OX c #AF9992",
"+X c #B6AA94",
"@X c #88ADB7",
"#X c #B2B3A9",
"$X c #C58E84",
"%X c #DA9886",
"&X c #C79F99",
"*X c #D59E92",
"=X c #E99B87",
"-X c #EFA889",
";X c #E4A99A",
":X c #F6AC93",
">X c #FBB793",
",X c #C8AAA8",
"<X c #D7B1AC",
"1X c #CBB9B8",
"2X c #D8BCB5",
"3X c #EDB7A6",
"4X c #9CC5B5",
"5X c #B7CBA2",
"6X c #B2CDA9",
"7X c #B0E4B6",
"8X c #D7D88E",
"9X c #DCDF91",
"0X c #FDEA82",
"qX c #F7F08B",
"wX c #D8C2BE",
"eX c #F9C7AB",
"rX c #E4C7BA",
"tX c #FBD5B7",
"yX c #84CECE",
"uX c #9CE0C5",
"iX c #D9C8C6",
"pX c #DDD1CF",
"aX c #E2CCC6",
"sX c #ECD6CC",
"dX c #F8D8C7",
"fX c #E9DAD6",
"gX c #F3DDD2",
"hX c #FDE6D2",
"jX c #FBE6D6",
"kX c #FDEBDB",
"lX c #E6DCE2",
"zX c #F1EAE6",
"xX c #FFF5E2",
"cX c #FDF8EA",
"vX c #FDF8F2",
/* pixels */
".X.X|.|.}.}.}.}.}.[.[.{.[.[.].].].`.].`.(.^.!.!.!.!.!.!.E.!.E.E.E.T.U.U.U.K.U.U.P.P.P.P.P.P.U.G.P.P.G.G.G.G.G.G.G.M.M.M.M.M.m.M.",
"|. X|.|.}.}.}.}.[.{.{.{.[.).].].`.`.`.`.`.!.!.!.!.!.E.Q.!.E.E.E.T.T.U.U.U.U.P.P.P.P.P.G.P.G.G.P.G.G.L.G.G.G.G.M.M.M.M.M.M.M.M.m.",
"|.|.|.|.}.}.{.{.}.[.[.[.].].).].(.`.(.(.(.!.!.!.!.E.!.E.E.E.T.T.T.T.U.U.U.P.P.P.P.P.P.P.P.P.G.G.G.G.G.G.G.G.G.M.G.M.M.M.m.M.m.M.",
"|.|.|.|.}.}.[.{.{.{.[.).].].].).(.(.(.(.!.(.!.!.!.Q.E.Q.E.E.T.T.T.U.U.U.U.U.P.P.P.P.L.P.G.G.G.P.L.L.G.L.G.M.G.M.M.M.M.M.M.m.M.c.",
"|.|.}.}.{.{.{.{.[.[.[.].].].).(.(.^.`.!.Q.Q.Q.Q.E.E.E.E.U.E.T.T.T.P.P.P.K.P.P.P.P.L.P.L.L.L.L.L.G.G.G.M.G.M.M.M.M.M.M.M.m.M.c.m.",
"|.|.}.{.{.{.{.].[.].].].].).).).(.).!.!.!.Q.Q.Q.!.E.Q.E.T.E.T.T.U.T.U.P.P.P.P.L.L.P.L.L.L.L.L.L.G.G.G.G.G.M.M.M.M.M.m.m.m.m.m.m.",
"}.}.[.}.{.[.[.[.].].].`.(.(.(.(.!.!.!.Q.Q.Q.Q.T.E.Q.U.T.E.U.T.K.P.U.P.P.P.L.P.L.L.L.L.L.G.L.G.G.G.G.G.M.M.M.M.M.n.M.M.m.m.m.m.n.",
"}.}.{.{.{.[.[.].].].`.].(.(.(.(.!.!.!.Q.Q.Q.Q.R.E.E.E.T.U.U.U.U.P.U.P.P.P.P.P.L.P.L.L.G.L.G.L.G.G.G.G.G.M.M.M.M.M.m.m.M.m.m.m.n.",
"}.{.[.[.[.].].].].`.].(.(.(.^.^.!.!.Q.Q.R.Q.Q.Q.E.T.T.T.T.P.T.P.P.P.P.P.P.P.L.L.L.L.L.L.G.G.M.M.G.M.M.M.M.M.M.M.m.M.M.n.n.n.m.n.",
"{.[.[.].].[.].].`.].(.(.(.^.^.^.!.Q.Q.Q.Q.R.T.Q.T.T.T.T.T.U.P.P.P.P.P.L.L.P.P.L.L.L.G.G.L.G.G.G.M.M.M.M.M.M.m.m.M.n.m.m.m.n.n.n.",
"[.{.[.[.].[.].].`.`.(.(.(.Q.^.^.Q.Q.Q.Q.Q.R.R.R.T.T.U.P.P.P.P.P.P.P.P.L.L.L.L.L.L.L.L.G.G.G.M.M.M.M.M.M.m.M.M.m.n.m.m.m.n.n.n.n.",
"[.[.[.].].].(.].(.(.(.(.(.Q.^.Q.Q.Q.R.R.R.R.U.U.U.T.U.T.P.U.P.P.P.P.P.L.L.P.L.L.G.G.L.G.G.G.M.M.M.M.M.m.M.m.m.m.n.m.n.n.n.n.n.n.",
"[.`.[.].].].].(.`.Q.(.(.Q.Q.(.Q.Q.R.R.Q.T.Q.T.U.U.U.K.P.P.P.P.P.L.L.L.L.L.L.L.G.L.G.G.M.G.M.M.M.M.M.M.m.M.m.m.m.m.m.n.n.n.n.n.x.",
"].[.].].`.].(.(.(.(.Q.(.Q.Q.Q.E.Q.Q.R.R.U.U.U.U.U.U.P.P.P.P.P.L.P.P.P.P.L.L.G.L.G.G.G.G.M.M.M.M.M.M.M.M.m.m.m.m.n.m.n.x.n.n.n.x.",
"].[.[.`.`.`.Q.(.(.Q.!.Q.Q.Q.E.Q.R.R.R.R.U.T.U.U.U.P.P.P.P.P.P.G.L.P.L.F.L.L.F.G.G.G.M.M.G.M.M.M.m.M.m.m.m.m.m.m.n.n.n.n.n.c.x.x.",
"].].`.(.`.`.(.(.(.Q.Q.Q.Q.E.Q.E.R.R.R.T.U.U.U.U.U.U.P.P.P.P.T.uX5X5XH.K.L.L.L.G.G.G.M.G.M.M.M.M.M.M.m.m.m.m.n.n.n.n.n.c.x.c.x.n.",
"].`.(.`.(.(.^.^.!.!.!.!.E.Q.Q.E.E.T.U.U.U.U.U.U.U.P.P.P.P.I.qXq.:.&.$.OXG.G.G.G.G.m.m.G.n.L.L.b.m.M.m.m.n.m.n.n.n.n.n.n.x.x.x.x.",
"`.`.(.(.(.(.(.!.!.!.E.!.E.E.E.T.E.U.U.U.U.U.P.K.U.U.P.L.I.9X:.%.;.:.:.+.OXG.G.G.G.G.G.G.L.m.n.m.m.m.m.n.m.n.n.n.n.n.x.c.x.c.x.x.",
"].`.(.(.(.!.^.!.!.E.!.!.!.E.E.T.U.T.U.U.U.P.P.P.U.G.G.G.yXr.t.qX0Xt.t.t.qX7XH.G.G.m.v.m.n.m.b.m.m.m.m.m.n.c.n.n.n.n.x.c.x.x.x.x.",
"(.(.(.(.!.!.!.^.!.Q.T.T.E.T.E.T.T.U.U.U.U.P.P.P.U.G.U.7Xt.r.<.=.&.&.&.=.,.<.r.9XH.G.L.n.L.m.m.m.m.m.m.n.n.n.n.c.x.n.x.x.x.x.x.x.",
"(.`.(.Q.^.(.E.Q.^.T.T.^.T.U.T.T.T.P.T.P.P.P.P.P.L.I.9X<.*.&.&.&.&.-.:.-.&.&.&.=.<.6XD.m.b.b.b.m.m.n.m.n.n.n.c.x.c.l.n.x.x.l.x.l.",
"(.Q.(.Q.Q.Q.E.Q.^.T.T.T.T.T.U.U.T.T.P.P.P.P.P.L.K.8X:.%.%.;.;.:.-.-.-.-.;.&.&.&.*.*.w.Z.v.b.v.v.m.c.n.n.n.x.c.c.x.n.l.l.x.x.l.x.",
"Q.(.Q.(.Q.Q.Q.E.E.W.T.Y.T.T.U.U.P.P.T.P.P.P.P.L.5X&.[  .e.>X>Xe.6.>.>.;.;.;.%.%.%.$.*.w.Z.v.v.v.n.n.n.n.n.c.x.x.x.l.l.n.x.l.l.l.",
"(.Q.Q.(.E.Q.E.Q.T.T.T.Y.T.T.E.P.U.P.P.P.L.P.P.H.&.[ :X-X4.4.8.tXkXhXe.6.0.>.;.%.} } L { 4.C.v.c.n.n.n.n.n.x.n.x.x.c.l.x.x.l.l.l.",
"Q.!.Q.Q.^.E.E.U.Q.U.E.E.U.P.E.U.P.P.P.P.P.L.P.9.J 5.1.=X8.8.8.s A -XkXdXe.q.>.} [ [ [ J [ 1.C.v.v.v.c.c.n.c.l.x.l.l.l.x.l.l.l.l.",
"Q.Q.E.Q.E.E.E.Q.U.E.U.U.U.U.P.P.P.P.P.P.P.L.Z.$.G =X| M F K [ f t d ` eXxX>X;.} [ [ J F F L q.r.6XD.l.c.x.n.l.x.l.n.l.l.l.l.l.l.",
"Q.Q.Q.E.E.E.U.E.U.U.U.U.U.P.U.P.P.P.L.P.P.L.@XG o.X.c Z K +.=.F y t d f w.kX3X} ] J J Z D N L :.>.w.C.l.x.x.x.x.l.l.x.x.l.l.l.l.",
"Q.!.E.Q.E.E.E.U.U.U.U.U.U.P.P.P.P.L.P.L.P.P.XXz 3XU x N K +.+.K | Y t d d 4.jX>XJ H D Z N m m D D F 1.x.c.l.l.x.l.l.l.l.l.l.l.k.",
"E.Q.E.Q.U.E.E.E.U.U.U.P.P.P.P.L.L.P.L.P.L.L.OXz 2XfXoXk N K K F C tX$Xt y y A tX5.D Z N S M g v M N C S.l.x.l.l.x.x.k.l.k.l.k.k.",
"Q.E.Q.U.E.U.U.U.U.U.U.P.P.P.P.P.P.L.L.L.L.L.d.k 2XfXcX1Xz N S N M dX:X#.s o r ` tXG N b m v g g x x c B.x.x.l.x.x.k.x.l.k.l.k.l.",
"E.Q.U.E.U.U.U.U.U.P.P.P.P.P.K.P.L.P.L.L.L.G.Z.V ;XiXzXcXO # V n ' ^ S F K V s i 7.7.g g g g 8 g q 5 j V.x.x.l.l.l.l.l.k.l.k.l.k.",
"E.U.E.U.E.U.U.U.K.P.P.P.U.L.L.L.L.L.L.L.L.L.G.Q X.,XpXzX@   W h j n S K =.=.G | h :Xn g g g 8 g 4 4 E c.x.k.l.l.x.k.k.l.k.l.k.k.",
"E.T.U.U.U.U.U.P.E.G.G.U.T.G.G.U.L.G.J.4X4XJ.G.A.~ *X,X2XiX1X1XoXl n S K $.$.L D _ o.' 8 8 8 6 8 - p h.k.x.k.x.l.l.k.x.k.k.k.k.k.",
"T.E.U.U.U.U.P.P.U.U.U.U.G.T.G.G.L._.r.q.,.*.9.+XX.) *X,X&X<X2XaXfXT n D K K F n ` l X.8 8 6 w 0 u.h.k.x.l.l.k.x.l.l.k.k.x.k.k.k.",
"U.U.U.U.U.K.P.P.P.G.P.G.G.E.T.G.L.+X;. .] G z | #.A ! %X;X;X2.wXzXi.. k S S N n ) a 4.5 3 3 4 W z.k.z.x.l.l.k.x.k.k.k.k.k.k.k.k.",
"U.U.U.U.P.U.P.P.P.U.L.T.G.G.G.G.L.2.C b q ) #.#.T @.@._ 3.;X;X<XlX#X  @ ( v n x _ ! _ 4 2 2 4 N.z.x.x.z.x.k.l.k.k.k.x.k.k.k.k.k.",
"U.U.U.U.U.P.P.P.G.U.G.P.G.G.T.L.L.@.w w V 6.eXtXtX%Xs.@ T 3.%X*X1XlXlXlXiXQ j q ..! l 9 9 & R x.z.x.k.x.k.x.x.k.k.k.k.k.k.k.k.j.",
"U.K.U.K.P.P.P.P.U.G.P.G.G.G.L.M.yX&.C ]  .eXkXxXxXcXfXoX+ U 2.3.&X1X1XiXiX1XoX! .., * * $ : V.l.z.z.l.x.k.k.k.k.k.k.k.j.k.k.j.k.",
"U.P.P.P.P.G.P.G.P.P.P.G.G.G.G.J.7.] C [ 5.hXkXcXcXvXvXxX@.+ I U ..&X&X,X#X&XoX..0 $ $ $ : B.l.l.x.l.k.k.x.l.k.k.k.k.k.k.k.k.k.j.",
"U.U.P.P.P.P.P.P.G.P.G.G.G.G.G.#XG b b ] 7.hXkXxXcXcXvXvXrXd.H.> > , X...Q T l : $ $ $ $ B.j.l.l.z.l.z.k.l.k.k.k.k.k.k.j.k.j.j.k.",
"P.P.P.P.P.P.G.P.L.G.L.L.G.G._.| C 7 e ^ 7.gXgXjXkXcXcXcXfXW + @ X ; > > : % : $ $ $ I V.l.l.l.l.l.l.l.k.k.k.k.k.k.k.k.k.k.j.j.j.",
"P.P.P.U.G.P.P.G.L.L.G.L.G.G.oXV v 7 7 B O.dXgXgXjXkXkXkXkX4.u u ; > ; ; > : : % : > U z.l.l.l.k.k.l.k.l.k.k.k.k.l.k.j.k.j.j.j.k.",
"P.P.P.G.P.G.G.G.L.L.G.G.G.Z.z c 6 1 3 e ^ rXsXsXgXgXgXsXaX~ u X q C } ;.] j 0 , 0 0 u.c.k.l.l.l.l.j.l.j.k.k.k.k.j.j.k.j.j.j.j.j.",
"G.U.G.P.G.P.G.P.L.G.G.G.G.XXk w 3 < 2 6 B =X2XiXiXaXaX2XO.p o # 0 w V n B B w q U y.x.x.l.l.l.k.l.l.l.j.l.k.j.k.k.j.k.j.j.k.g.j.",
"P.P.G.P.P.P.G.G.G.G.G.G.L.a.0 3 < < 2 2 x / ,X1X1X1X,X| l o X R B.> 9 8 w 5 0 i.h.j.l.z.k.l.l.k.j.l.j.l.k.k.j.k.k.k.j.k.j.k.g.k.",
"P.G.P.P.G.G.G.P.G.G.b.G.M.D.s % 2 x 5 * q x / %X*Xo.C B : . y.x.x.B.E E W p.h.x.z.k.l.k.l.k.l.k.l.j.k.j.k.k.k.j.j.k.g.j.j.g.g.g.",
"G.P.P.G.G.P.G.G.G.G.G.M.v.L.E , x x B , * q x B B x w 9 X N.x.x.x.x.x.x.k.x.x.x.z.z.z.z.k.k.k.k.k.j.k.j.k.j.j.j.j.j.k.g.k.j.j.j.",
"P.G.G.P.G.G.G.G.G.M.G.G.b.b.a.% * 0 q 0 : * 0 q w 9 9 u.x.k.n.x.x.x.z.x.x.k.k.x.z.z.k.k.k.l.l.k.l.l.k.k.j.k.k.k.k.g.k.g.g.j.g.g.",
"G.P.G.G.L.G.G.G.G.G.M.M.M.m.M.N.@ I : = % % : * * > y.m.x.x.x.x.x.x.n.l.l.x.l.l.k.k.k.k.l.k.k.k.j.k.k.j.k.j.j.j.j.j.j.g.j.g.g.j.",
"P.G.L.G.G.G.G.b.M.M.M.M.M.M.m.m.m.m.n.V.u.O P I u.S.n.x.x.m.x.x.l.l.l.l.l.k.l.l.x.x.k.k.k.k.k.k.k.j.k.k.j.j.j.j.j.j.j.j.g.j.g.g.",
"L.L.G.L.G.M.M.G.M.M.M.M.M.M.M.m.m.m.m.m.m.m.n.n.n.n.n.l.x.x.x.x.l.n.l.l.l.l.k.l.k.k.k.l.k.k.k.k.k.j.j.j.j.j.j.j.j.j.j.g.j.g.g.g.",
"L.G.G.G.G.G.M.M.M.M.M.M.m.M.m.m.m.m.n.n.n.x.x.n.n.x.n.x.x.x.x.x.l.l.l.l.k.l.l.k.k.x.k.l.k.k.k.k.j.k.k.j.j.j.j.j.j.j.g.j.g.j.g.g.",
"G.G.G.G.b.G.G.M.M.M.M.M.m.M.m.m.m.n.n.n.c.c.x.c.l.n.l.n.x.x.l.l.l.l.l.l.l.k.k.l.k.l.l.k.k.k.j.k.j.k.j.j.j.j.g.j.g.j.g.g.g.j.g.g.",
"L.G.G.G.G.M.M.M.M.M.m.m.m.m.m.m.m.n.m.n.c.c.c.c.n.l.x.n.x.x.x.l.l.l.l.k.x.k.l.k.k.k.k.k.j.k.k.j.j.k.j.j.j.j.j.j.j.j.g.j.g.g.g.g.",
"G.G.G.M.M.M.M.M.m.M.m.m.m.m.m.m.n.n.c.c.x.c.c.x.l.l.x.x.x.z.x.l.l.l.l.k.k.l.k.k.k.j.k.k.k.k.k.j.j.k.j.j.j.g.j.g.g.g.g.g.g.g.g.f.",
"b.G.b.G.M.M.m.M.M.m.m.m.m.m.m.c.c.n.c.c.c.x.c.x.n.x.l.x.z.x.z.k.x.k.l.l.l.k.k.k.l.l.j.k.k.j.j.j.j.j.j.j.j.j.j.g.j.g.g.g.g.g.g.g.",
"L.M.M.M.M.M.m.M.m.M.m.m.m.m.c.c.n.n.x.n.x.x.x.x.x.x.x.x.x.l.x.k.k.x.k.x.k.k.k.k.k.k.k.j.j.k.j.j.j.j.j.j.g.j.g.g.j.g.g.g.g.g.g.f.",
"M.M.M.M.m.M.M.m.m.m.m.m.m.c.n.c.c.c.n.x.c.x.x.x.x.x.k.x.l.x.k.x.x.k.x.k.k.k.k.k.k.k.j.k.j.j.j.j.j.j.g.g.j.g.j.j.g.g.g.g.g.f.f.g.",
"M.M.M.M.M.m.m.M.m.m.m.m.n.n.n.n.n.c.x.c.x.x.x.x.l.l.l.x.l.l.x.k.k.x.k.k.k.k.k.k.k.j.j.k.j.j.j.j.j.g.j.j.g.j.g.g.g.g.g.g.g.f.g.g.",
"M.M.M.M.m.M.M.m.m.m.m.c.n.n.c.n.n.x.c.c.x.x.x.x.x.l.l.l.k.l.k.x.k.k.k.k.k.k.k.k.k.j.k.j.j.j.k.j.j.j.g.j.g.g.j.g.g.g.f.g.g.g.f.f.",
"M.M.M.M.M.m.m.m.m.m.n.n.n.c.c.n.x.x.x.x.x.x.x.l.l.l.l.l.k.x.k.k.k.k.k.k.k.k.k.k.j.j.j.j.j.j.j.j.j.j.j.g.g.g.g.g.g.g.g.g.f.g.f.f.",
"M.M.m.m.m.m.m.n.n.m.n.n.n.n.n.x.x.x.x.x.x.l.x.x.l.l.l.k.x.k.k.k.x.k.k.k.k.k.k.k.k.k.j.j.j.j.g.j.g.g.j.g.j.g.g.g.g.g.f.g.g.f.g.f.",
"M.M.M.m.M.n.m.n.n.n.c.n.c.x.n.x.x.x.x.x.x.k.k.x.l.k.l.l.k.x.k.k.k.k.k.k.k.k.j.k.j.j.j.j.j.g.j.g.j.g.g.g.g.g.g.g.f.g.g.f.f.g.f.f.",
"m.M.m.m.m.n.m.m.n.n.n.n.x.n.c.x.x.l.x.x.x.x.l.l.l.l.l.k.k.x.k.k.k.k.j.k.k.j.j.j.j.j.g.j.j.j.g.j.g.j.g.g.g.g.f.g.g.f.f.g.f.f.f.f."
};
