/* XPM */
static char *d2c2f58b64e54e5dab76dfce856fc6bdW3ZkgWybjEi8uhuA[] = {
/* columns rows colors chars-per-pixel */
"64 64 235 2 ",
"   c #190D0F",
".  c #25100B",
"X  c #2D1B18",
"o  c #311D18",
"O  c #35211C",
"+  c #3A221D",
"@  c #3E281E",
"#  c #3C2926",
"$  c #46281B",
"%  c #543710",
"&  c #432A23",
"*  c #462C25",
"=  c #592F25",
"-  c #47322B",
";  c #4D332C",
":  c #55352A",
">  c #53362E",
",  c #473B38",
"<  c #543730",
"1  c #543A32",
"2  c #5B3C34",
"3  c #5A4139",
"4  c #68453A",
"5  c #725037",
"6  c #75603A",
"7  c #3E3952",
"8  c #413C53",
"9  c #3D4D73",
"0  c #544A4D",
"q  c #554956",
"w  c #524D55",
"e  c #665449",
"r  c #6E5D56",
"t  c #736558",
"y  c #534D65",
"u  c #575266",
"i  c #4C597B",
"p  c #655B6E",
"a  c #696267",
"s  c #716E76",
"d  c #9B6F18",
"f  c #AF7013",
"g  c #865C28",
"h  c #B9772A",
"j  c #C27F0D",
"k  c #C37F1D",
"l  c #DA712B",
"z  c #825648",
"x  c #937353",
"c  c #A07855",
"v  c #88776B",
"b  c #9D7668",
"n  c #837872",
"m  c #A97E63",
"M  c #CA774E",
"N  c #EA5E71",
"B  c #D26F77",
"V  c #EF6874",
"C  c #F56C7D",
"Z  c #AF8B36",
"A  c #D48D0E",
"S  c #DB8C0B",
"D  c #DE930D",
"F  c #CD8B14",
"G  c #C48619",
"H  c #D58D11",
"J  c #D99415",
"K  c #E58D0E",
"L  c #E3940C",
"P  c #E99A0E",
"I  c #E39B16",
"U  c #DCAB15",
"Y  c #EBA70D",
"T  c #F2AC0F",
"R  c #F6B40F",
"E  c #EAA914",
"W  c #ECB617",
"Q  c #FDB411",
"!  c #F6B914",
"~  c #CF8F2E",
"^  c #DA9722",
"/  c #E29533",
"(  c #CBB034",
")  c #F2B723",
"_  c #ECB130",
"`  c #E9BE38",
"'  c #F8CA0D",
"]  c #FED90A",
"[  c #E9C513",
"{  c #F8C617",
"}  c #FDCB13",
"|  c #FED415",
" . c #FFDC15",
".. c #FFD81A",
"X. c #FEE10E",
"o. c #FEE315",
"O. c #FFE319",
"+. c #FBE518",
"@. c #FFEB18",
"#. c #FFF019",
"$. c #F6C725",
"%. c #F8D323",
"&. c #ECCE32",
"*. c #FCEC2A",
"=. c #F4EC39",
"-. c #B08F51",
";. c #B3A359",
":. c #948665",
">. c #9B8679",
",. c #B0946E",
"<. c #B98875",
"1. c #9BA97C",
"2. c #AEAF72",
"3. c #CF994C",
"4. c #C7B457",
"5. c #CFB351",
"6. c #E3A246",
"7. c #E4B34C",
"8. c #D29271",
"9. c #E28273",
"0. c #CFBF7A",
"q. c #E2AA72",
"w. c #BED16B",
"e. c #B7E579",
"r. c #C6D15B",
"t. c #EAC84F",
"y. c #F3E74C",
"u. c #D4D16E",
"i. c #EAD46D",
"p. c #D1E776",
"a. c #FBE362",
"s. c #3556B6",
"d. c #3A79AD",
"f. c #59649F",
"g. c #7D7B87",
"h. c #787693",
"j. c #1C5DDB",
"k. c #897C92",
"l. c #FE6E82",
"z. c #3E83BC",
"x. c #4586B4",
"c. c #6D98AC",
"v. c #73B0B2",
"b. c #7CC2B3",
"n. c #389DE4",
"m. c #2997F5",
"M. c #2C9DF6",
"N. c #2EA2F6",
"B. c #31A6F7",
"V. c #33ABF7",
"C. c #34A9F5",
"Z. c #35ADF8",
"A. c #36B0F7",
"S. c #39B2F6",
"D. c #37B1F8",
"F. c #39B5F8",
"G. c #3CBBF9",
"H. c #57A2D4",
"J. c #6EACCC",
"K. c #4EB0E6",
"L. c #44B6EB",
"P. c #45B9F5",
"I. c #6EB8E5",
"U. c #3FC1FA",
"Y. c #5BC6DC",
"T. c #6BD0D3",
"R. c #55C8E7",
"E. c #53CAE9",
"W. c #47CAF7",
"Q. c #49CDF6",
"!. c #41C4FA",
"~. c #45CCFB",
"^. c #4CD1F5",
"/. c #47D0FC",
"(. c #4AD4FC",
"). c #4DDBFD",
"_. c #50DAF9",
"`. c #70C1ED",
"'. c #4FE0FD",
"]. c #50E0FD",
"[. c #52E3FD",
"{. c #52E5FE",
"}. c #55EBFE",
"|. c #56EDFF",
" X c #58EFFF",
".X c #59F1FF",
"XX c #8F898D",
"oX c #968A86",
"OX c #AE998F",
"+X c #B89C8A",
"@X c #8CB19A",
"#X c #B3A888",
"$X c #B7A69A",
"%X c #968DAC",
"&X c #A296A9",
"*X c #81ACA3",
"=X c #B3A9B0",
"-X c #C89686",
";X c #D79D88",
":X c #D5AD8F",
">X c #DDA995",
",X c #EAAD90",
"<X c #E8B798",
"1X c #DCB6A8",
"2X c #CEBAB1",
"3X c #E2ACA6",
"4X c #E9B6A8",
"5X c #EDB0B0",
"6X c #95CF99",
"7X c #A1D996",
"8X c #9FE195",
"9X c #8EDBB0",
"0X c #83E2BD",
"qX c #D4D08E",
"wX c #E4D18C",
"eX c #DACCB8",
"rX c #F6C9AA",
"tX c #E9C9B6",
"yX c #EBCFB5",
"uX c #FAD7BA",
"iX c #E8E2B3",
"pX c #8EBBDB",
"aX c #BBBDDA",
"sX c #C1B0CA",
"dX c #92C9CD",
"fX c #A5C1DF",
"gX c #88C6E9",
"hX c #90CDEB",
"jX c #D9C8CB",
"kX c #C7C9D6",
"lX c #F2D6CA",
"zX c #FCE8C7",
"xX c #F0EAD3",
"cX c #D3E0E0",
"vX c #EEEEE7",
/* pixels */
".X.X|.|.}.}.}.}.}.{.}.{.{.[.{.[.[.[.).[.).).).).).).(.).(.).(.(.(.(.~.(././.~./.~.~.~./.U./.U./.U.U.U.U.U.U.U.U.U.G.G.G.G.G.G.F.",
"|. X|.|.}.}.}.}.{.}.{.{.{.{.[.[.[.).[.).[.).).).).).).(.(.(.(.(.(.(.(./.~./.~.~.~.~.~.U.~.U.~.U.~.U.U.~.U.U.U.G.U.G.G.G.G.F.G.F.",
"|.|.|.|.}.}.}.}.}.{.{.{.{.[.).[.[.[.).].).).).).).(.(.(.(.(.(.(.(.(.~.(./.~.~.~.~.~.~.~.~./.U./.U.!.U.U.U.U.U.G.G.G.G.G.G.G.F.G.",
"|.|.|.|.}.}.}.{.{.{.{.[.[.[.).[.).[.).).).).).).).).(.).(.(.(.(.~.(.~./././.~.~.~./.U.!.U.U.U.U.!.U.U.U.U.G.U.U.G.G.G.G.F.F.F.F.",
"|.|.}.}.{.}.}.{.{.{.[.[.[.[.[.).].).).).).).).).(.(.(.(.(.(.(.~././././.~.~.~.~.~.W.!.~.!.!.!.U.U.U.U.U.G.U.G.G.G.G.G.G.G.F.F.F.",
"|.|.}.}.}.{.{.{.{.[.[.[.[.).[.).).).).).).).(.(.(.(.(.(.(.(.(.(./.~./.~.~.~.~.!.!.~.!.!.!.!.!.!.U.U.U.G.G.G.G.G.G.G.F.F.F.F.F.F.",
"}.}.{.}.{.{.{.{.{.[.[.'.[.'.).[.).).).).(.).(.).).(.(.(.(.(.~.~.~./.~.~.~.~.~.!.~.!.!.!.!.!.!.U.U.U.U.U.U.G.G.G.F.F.G.F.F.F.F.F.",
"}.}.}.{.{.{.{.{.[.[.'.[.).'.).).).).).(.).(.(._.(.(.(.(.(.~.(.~.~.~.~.~.!.~.~.!.!.!.!.!.U.U.U.!.U.U.U.U.G.G.G.F.F.G.F.F.F.F.F.F.",
"{.}.{.{.{.[.[.[.[.'.[.).'.).'.).).).(.).(.(.(.(.(.(.(.(./././././.W.~.~.^.W.W.W.U.U.~.U.G.!.G.U.U.G.G.G.G.G.F.G.G.F.F.F.F.F.A.D.",
"}.{.}.{.[.[.[.[.[.).[.).).).).).).).).(.(.).(.(.(.^.(.^.^././.(./.Q.W.W.T.9X8X6XT.U.U.U.!.!.U.G.G.U.G.G.G.G.G.G.F.F.F.F.D.D.F.D.",
"{.{.{.{.[.[.[.[.[.).[.'.).).).).).(.(.(.(.(.(._.^.^.[.^.^.E.T.T.^.dX=XqX*.+.| } { R.U.U.U.G.U.G.U.G.G.G.F.G.F.G.G.F.F.F.A.A.D.D.",
"}.{.{.[.[.[.[.).).'.).).).).).).).(.).0X8Xe.e.9X9XdX0Xe.=.*.*.*.*.y.u.iXxXi.} { R w.W.U.!.U.G.G.G.G.F.G.F.F.F.F.F.F.F.A.F.D.D.Z.",
"{.{.[.[.[.[.).[.'._.).).).).(.).(.T.=.| | | y.xX:X&.+.+.o. .X.] X.X.X.&.u.lX:X) Q 7.G.G.G.G.G.G.G.G.F.G.F.F.F.G.F.F.A.D.A.Z.A.D.",
"[.{.[.[.[.[.[.).).).).).).).).(.).r.Q } | u.vXwX%.| ..O.@.@.@.@.@.@. . . .` 0.#X/ _ W.U.G.U.G.G.F.G.G.F.F.F.F.F.D.D.D.A.D.D.Z.Z.",
"[.[.[.).[.).[.).).).).).).).(.(.(.5.Q Q 4.jX0.$.|  .+.@.@.#.#.#.#.@.o. .| { [ 5.>.;.Y.G.G.G.G.G.G.G.G.F.F.D.F.F.D.D.A.A.Z.D.Z.D.",
"[.[.[.[.).[.).).).).).).(.(.).(.(.4.P ~ $X2.%. . .@.+.@.@.@.O.O.X.O.o. ...| %.} ( :.v.G.G.G.G.G.F.F.F.G.F.F.D.F.D.A.A.A.A.D.Z.Z.",
"[.'.{.[.).'.).).).).).).(.).(.(.(.2.^ b +X$.}  .O. . . . . ... . ...%.4.2XsX2X$.| ( @XG.G.G.G.F.G.F.F.F.F.D.D.D.A.D.D.Z.Z.Z.Z.Z.",
"[.).).[.).).).).).).(.(.(.(.(.(.(.6Xn b ` ' %.t.t._ %.| ..%.&.7.7.7.oXk.%X%X%Xk.$.} 6XG.G.G.F.G.F.F.G.D.F.D.D.D.D.D.A.A.Z.A.Z.Z.",
"[.[.).).).).).).).(.(.).(.(.(.(./.*Xn 4.{ ` 2X=X&Xk.k.,.OXk.h.p u u q q q q q y ( | r.G.G.F.G.F.G.F.D.F.D.A.D.A.D.D.Z.Z.Z.Z.Z.Z.",
").).).'.).).).).).(.).(.(.(.(.(.(.T.,.$.Q oX&X%X%Xs q , # # & ; 1 1 < 1 ; - & & [ | } L.G.F.F.F.F.D.F.D.D.D.D.A.D.Z.Z.D.Z.Z.Z.Z.",
").'.).).).).(.).(.(.(.(.(.(.(./.^.^.p.! W p q # # * ; 1 2 1 1 < > 2 : 1 > * & o { { ! Y.F.F.F.F.A.D.F.D.D.D.A.Z.Z.Z.Z.Z.Z.V.Z.V.",
").).).).).).).(._.(.(.(.(./././.^.^.p.! W x X o * < < < 1 2 2 < : 3 2 : * & o o E { Y 6XG.F.F.F.F.D.D.D.D.D.A.Z.Z.Z.Z.V.Z.Z.Z.V.",
"'.).).).).).(.(.(.(.(.(././././.^.Q.p.R W W $ O * * * ; < : * + # & : & + o o O D ' Y @XF.F.F.D.D.D.D.D.D.D.D.A.D.Z.Z.Z.V.V.V.V.",
").).).).(.(.).(.(.(./.(././././.Q./.r.E W ! % o o O + + 4 + o X o o $ 4 2 g m :XU R Y v.F.F.F.F.D.D.D.D.Z.Z.Z.Z.Z.Z.Z.Z.V.V.V.V.",
").).).(.(.(.(.(.(.(././.~.(.~.(.Q.~.u.E W W d o O o @ & r 4 g b ,.:XtX>.e r eXlX^ T L v.S.S.D.D.A.A.A.Z.Z.Z.Z.Z.Z.Z.Z.Z.V.V.V.V.",
").(.(.).).(.(.(.(.(././.(.~.~.~.~.Q.7XI Y Y J :X<X:Xt e x yXzXzXzXxXv   r s - zXJ P P J.S.S.D.D.Z.A.A.A.A.Z.Z.Z.V.Z.V.V.V.V.V.B.",
"(.).).(.(.(.(.(././././.(.~.~.~.~.~.T.I Y U Y rXuX# , O 0 0 yXzXzX1X#   . oX0 -XK P I L.F.A.D.A.D.Z.A.Z.Z.Z.Z.Z.Z.V.V.V.V.V.V.B.",
").).(.(.(.(./.(.(./././.~.~.~.~.~.~.Q.4.D P Y q.+Xt oXX   . oXzXlXtXv + = #Xs ;XK K 1.D.F.A.A.A.A.Z.Z.Z.Z.Z.Z.Z.V.V.V.V.V.B.V.V.",
"(.(.(.(.(.(.(.(./././.~.~.~.~.~.~.~.W.b.I K L / >.r 2X5 * = jXuXuXuX:Xc b 2XB l.C M H.D.A.A.A.Z.Z.Z.A.Z.V.Z.V.V.V.V.V.V.B.V.B.B.",
").(.(.(.(.(.~.(./.~./.~.~.~.~.!.!.!.!.W.#XS S L q.<.=Xb b +XuXrXrXrX4X<X>X8.C l.V H.Z.Z.D.A.A.Z.A.Z.Z.Z.Z.Z.V.V.V.V.V.B.V.B.B.V.",
"(.(.(.(./.(./.~././.~.~.~.~.~.~.~.!.!.W.U.1.l N l.V 9.,X<X<X<X,X-X;X;X8.6.L ^ M H.Z.D.D.D.Z.A.A.Z.Z.Z.Z.Z.V.V.V.V.B.V.V.V.B.V.B.",
"(.(.(.(././././.~.~.~.~.~.~.~.!.!.!.!.!.U.U.c.B N N ^ ^ / 6.6.6.6./ I D K I 1.D.D.D.Z.D.A.Z.Z.Z.Z.Z.Z.Z.Z.B.V.V.V.V.B.V.B.V.B.B.",
"(./.(./././././.~.~./.~.~.~.~.!.!.!.!.!.U.U.!.P.v.;.~ H S L S S S D I ~ *XL.D.A.A.A.A.A.Z.A.A.Z.Z.Z.V.V.V.V.V.V.B.B.B.B.B.B.B.B.",
"(.(././././.~.~.~.~.~.!.!.!.!.!.!.!.U.U.U.P.!.!.G.U.P.J.*X-.h F G G d c I.D.A.A.A.A.Z.Z.A.Z.Z.Z.Z.V.V.V.Z.Z.B.V.V.Z.Z.B.Z.B.B.B.",
"/././././.~./.~.~.~.!.~.~.U.W.U.!.!.U.U.U.U.G.G.G.G.P.gX-X+XU ' | X.R h >XhXA.A.A.Z.Z.A.Z.Z.Z.V.Z.Z.Z.V.Z.B.Z.B.B.B.B.B.B.B.B.N.",
"/.(././.~.~./.U./.U.~.~.U.~.!.!.U.U.U.U.U.U.!.G.P.P.kX3X3Xq.U ' ] [ ' W >XjXI.A.A.A.Z.Z.Z.Z.V.Z.V.Z.Z.B.B.V.B.V.B.V.V.B.B.B.B.B.",
"Q././.~.~.~.~.~.!.~.!.~.!.!.!.!.!.U.U.U.!.G.G.G.U.pX5X5X,X_ R  .+.t ( } 6.5XgXD.A.Z.A.Z.V.V.Z.Z.V.V.Z.Z.B.V.V.B.B.B.B.B.B.B.B.B.",
"/.~.~.~.~.~.~.~.~.!.~.U.!.!.!.U.U.U.U.U.G.G.G.G.G.dX4X3XwX) U ( Z XXn $._ 5XP.D.Z.Z.Z.Z.A.Z.V.Z.Z.B.B.V.B.B.B.V.Z.B.B.B.B.B.N.B.",
"/././.~.~.~.~.!.~.U.U.!.!.!.U.U.U.U.U.G.G.G.G.G.G.gXkXg.u c.a a c.s.f.:.h J.C.Z.A.Z.Z.V.V.V.Z.B.V.B.Z.B.Z.B.V.B.B.B.B.B.N.N.B.N.",
"~.~.~.~.~.~.!.~.!.~.!.!.U.U.U.U.G.U.U.G.G.G.G.G.`.cXaXe 8 u 9 7 f.j.s.g.p J.Z.Z.Z.Z.Z.Z.V.V.Z.B.B.V.B.Z.B.B.B.B.B.B.B.N.B.N.B.N.",
"~.~.~.~.~.~.U.~.!.!.U.!.U.U.U.U.U.G.G.G.G.G.F.G.I.fXkX~ d g 3 w h.s.f.7 7 z.Z.Z.Z.Z.Z.V.Z.B.Z.V.B.V.V.B.B.V.N.V.B.B.B.B.N.B.N.N.",
"~.~.~.~.~.~.~.U.!.!.U.!.U.U.U.U.U.G.G.G.G.G.G.F.P.gXaX,.f G g 5 5 3 a 5 6 C.Z.Z.Z.Z.V.V.Z.V.B.Z.Z.V.B.V.B.N.V.B.B.N.N.N.N.N.N.N.",
"~.~.!.!.~.U.U.U.!.!.U.U.U.U.U.G.G.G.G.G.G.G.F.F.F.F.F.S.,.3.k K Y P g G c.Z.Z.Z.Z.V.V.V.V.B.B.Z.B.B.B.B.V.N.V.N.N.B.B.B.N.N.N.N.",
"~.~.~.!.U.~.U.~.U.U.U.U.U.U.U.G.G.G.G.G.G.F.G.F.F.F.A.F.$X3X>X-.Z f Z 1.Z.Z.V.V.V.V.V.V.V.B.Z.B.B.Z.B.B.V.N.N.N.B.N.N.N.N.N.N.N.",
"~.~.!.!.~.~.U.U.U.U.U.U.G.U.G.U.G.F.G.F.F.F.F.F.F.D.D.D.=X3XyXI.J.8.;XJ.F.D.V.Z.V.V.V.V.B.B.V.B.B.V.B.B.B.N.B.V.N.N.N.N.N.N.N.N.",
"!.!.~.~.U.U.U.!.U.U.U.G.U.G.G.G.G.F.G.G.F.F.F.F.F.D.D.D.fXjXxX`.J.-X1XhXZ.Z.V.V.V.V.V.V.B.V.B.B.B.B.B.B.B.B.N.N.B.N.N.M.N.N.N.N.",
"!.~.~.U.U.!.!.U.U.U.U.U.G.G.G.F.G.F.G.F.F.F.F.A.A.D.A.K.2XvXvXu.-.jXjXwXS.Z.Z.V.V.B.V.B.V.B.V.V.B.B.B.B.B.N.N.N.N.N.N.N.M.N.M.N.",
"!.!.!.!.!.!.U.U.U.G.G.G.G.G.G.F.G.G.F.F.F.F.F.A.A.A.A.v.F E { Y j ) ) Q v.D.V.V.B.V.B.V.B.V.N.B.B.B.B.N.B.B.N.B.N.N.N.N.N.N.N.M.",
"!.!.!.!.U.U.U.U.G.G.G.G.G.F.G.F.G.F.F.F.F.F.D.F.D.D.Z.v.F D $.$.G Y Q Q #XV.V.V.B.V.B.V.B.Z.B.B.B.B.B.N.N.N.N.N.N.N.N.N.M.N.M.M.",
"!.!.!.U.U.U.U.U.G.U.G.G.G.G.G.F.F.F.F.F.F.D.D.D.D.D.D.@XH W &.a.y.[ ] o.&.V.V.B.V.B.V.B.B.B.B.B.B.B.B.B.N.N.N.N.N.N.N.N.N.M.N.M.",
"!.U.!.U.U.G.U.G.G.G.G.G.G.G.F.G.F.F.F.F.A.A.A.D.Z.A.D.2.A J ! ' ] ! D ' W S.V.V.B.V.B.V.B.B.B.B.B.B.N.N.N.N.N.N.N.N.N.M.M.N.M.M.",
"!.!.U.U.U.U.G.U.G.G.G.G.G.F.F.F.F.F.D.D.A.A.A.D.A.Z.A.-.F A E T R W h R R z.B.V.V.B.B.V.B.B.B.N.N.N.B.N.N.N.N.N.N.N.N.M.M.M.M.M.",
"!.U.U.U.G.G.G.G.G.G.G.F.F.F.F.F.F.D.F.D.A.A.Z.A.A.Z.Z.x.g f H I G z g x t n.V.B.B.B.B.B.B.B.N.B.N.B.N.N.N.N.N.N.N.M.N.M.N.M.M.M.",
"U.U.U.G.G.U.U.G.G.G.F.F.F.F.F.F.F.D.D.D.A.A.A.A.Z.Z.Z.Z.d.i y y i z.n.n.B.B.V.V.B.B.B.V.N.B.B.N.N.B.N.N.N.N.M.N.M.N.M.N.M.M.M.M.",
"G.P.U.U.G.G.G.F.F.G.G.F.F.F.F.G.D.D.D.A.Z.A.A.Z.Z.A.Z.Z.V.V.V.Z.V.B.C.C.V.V.V.B.B.B.B.B.B.B.B.N.N.N.N.N.N.N.N.N.N.M.M.M.M.M.M.M.",
"!.G.U.G.G.G.G.G.G.F.F.F.F.F.F.D.D.Z.D.A.A.Z.A.V.Z.Z.Z.Z.V.V.V.B.V.V.V.B.B.B.B.B.B.B.B.B.B.N.N.N.N.N.N.N.N.N.M.M.N.M.M.M.M.M.M.m.",
"U.G.G.G.G.G.G.G.F.F.F.F.F.F.D.D.A.A.A.D.Z.Z.Z.V.Z.Z.Z.Z.Z.Z.Z.B.V.B.V.B.B.B.B.B.B.B.B.B.N.B.B.N.N.N.N.N.N.N.m.N.M.M.M.M.M.m.M.M.",
"G.U.G.G.G.G.F.F.G.F.F.F.F.D.D.D.A.A.A.Z.Z.Z.Z.Z.Z.B.Z.Z.V.B.Z.V.V.V.B.V.V.B.B.B.B.B.N.N.N.N.N.N.N.N.N.N.m.N.N.N.M.M.M.M.M.M.M.m.",
"G.G.U.G.F.F.G.F.F.F.F.F.D.D.D.D.A.Z.Z.A.A.Z.Z.Z.Z.Z.B.Z.B.Z.Z.B.B.B.V.B.B.B.B.B.B.N.N.B.N.N.N.N.m.N.m.N.N.N.N.m.M.M.M.M.m.M.m.M.",
"G.G.F.G.G.G.F.F.F.G.D.D.D.D.D.D.A.A.Z.Z.Z.Z.Z.Z.Z.B.V.V.Z.B.V.B.V.B.B.B.B.B.B.B.B.B.N.N.N.N.N.N.N.N.N.N.N.m.N.m.M.M.M.m.M.m.M.m.",
"G.G.G.F.F.F.F.F.F.F.D.D.D.D.D.D.A.Z.Z.Z.Z.Z.V.V.Z.Z.B.V.B.Z.B.V.B.V.B.B.B.B.B.N.N.N.N.N.N.N.N.N.N.N.N.N.M.N.m.N.M.M.M.m.M.M.m.m.",
"G.F.F.G.F.F.F.F.D.F.D.D.D.Z.D.Z.Z.Z.Z.Z.Z.Z.V.Z.B.Z.Z.B.V.B.B.B.B.B.B.B.B.B.B.B.B.N.N.N.N.N.N.m.N.m.N.m.M.M.N.m.M.M.m.M.m.m.M.m.",
"G.G.G.F.F.F.F.D.F.D.D.D.D.Z.Z.D.Z.A.V.Z.Z.V.V.V.Z.B.V.V.B.V.B.B.B.B.B.B.B.B.N.B.N.N.N.N.N.N.N.N.N.N.N.m.M.M.N.m.M.m.M.M.m.m.m.m.",
"F.G.F.F.F.F.F.D.D.D.D.D.Z.A.Z.Z.V.Z.Z.V.V.V.V.Z.B.Z.B.B.V.V.B.B.B.B.B.B.N.N.N.N.N.N.N.N.N.m.N.N.m.N.m.N.M.M.M.M.M.m.m.m.M.M.m.m."
};
