/* XPM */
static char *_c62e979a83e45c8ed96d4d26365a87bDxIONwjne8iZxWxn[] = {
/* columns rows colors chars-per-pixel */
"64 64 227 2 ",
"   c #1D0E0D",
".  c #271B17",
"X  c #2D211F",
"o  c #33251D",
"O  c #282A2D",
"+  c #362A26",
"@  c #3B2B24",
"#  c #3C3329",
"$  c #383738",
"%  c #62310D",
"&  c #49342A",
"*  c #4B342A",
"=  c #463935",
"-  c #543B32",
";  c #683B27",
":  c #773B29",
">  c #4C423A",
",  c #6F452C",
"<  c #325466",
"1  c #534745",
"2  c #535152",
"3  c #6D524A",
"4  c #69615E",
"5  c #52707D",
"6  c #70686F",
"7  c #7F767F",
"8  c #A83C1D",
"9  c #8B3C24",
"0  c #B6421F",
"q  c #8A4C2C",
"w  c #974126",
"e  c #A54A29",
"r  c #B35429",
"t  c #A75534",
"y  c #B96436",
"u  c #C5481D",
"i  c #C54A21",
"p  c #CC4D24",
"a  c #CC4F29",
"s  c #D04D22",
"d  c #D65529",
"f  c #CA5835",
"g  c #D65B31",
"h  c #E95E29",
"j  c #CA6E3C",
"k  c #DB6A38",
"l  c #E86733",
"z  c #ED6931",
"x  c #F76B33",
"c  c #FD7435",
"v  c #FB7837",
"b  c #FE7B3C",
"n  c #995845",
"m  c #875E51",
"M  c #A95B44",
"N  c #B95B42",
"B  c #AB4F5C",
"V  c #8E6756",
"C  c #AD6951",
"Z  c #A56B59",
"A  c #846762",
"S  c #94726A",
"D  c #857578",
"F  c #957778",
"G  c #AA6E68",
"H  c #CD6E50",
"J  c #E37646",
"K  c #FF7C40",
"L  c #F15E72",
"P  c #C67D68",
"I  c #EB657B",
"U  c #FD823D",
"Y  c #FA883D",
"T  c #9B847C",
"R  c #AB8673",
"E  c #BA967C",
"W  c #D6845A",
"Q  c #FE8342",
"!  c #FE8B44",
"~  c #FE9344",
"^  c #FD9C47",
"/  c #FC9748",
"(  c #E78857",
")  c #EB8C51",
"_  c #F2955B",
"`  c #FEA34A",
"'  c #FAA448",
"]  c #FEAB4C",
"[  c #FFAE50",
"{  c #F3B055",
"}  c #FEB352",
"|  c #FDBC53",
" . c #CB846C",
".. c #C49274",
"X. c #CC937A",
"o. c #D2947E",
"O. c #EF9A66",
"+. c #F1AE6F",
"@. c #FBCB5B",
"#. c #E8D771",
"$. c #2E678D",
"%. c #2E79AA",
"&. c #3579A3",
"*. c #49728B",
"=. c #6D7988",
"-. c #7C7484",
";. c #817981",
":. c #82798C",
">. c #FC6F88",
",. c #3C89B8",
"<. c #598796",
"1. c #528DA8",
"2. c #7496AC",
"3. c #769FA9",
"4. c #3695CE",
"5. c #2997F5",
"6. c #2C9DF6",
"7. c #35A3E6",
"8. c #2EA2F6",
"9. c #31A6F7",
"0. c #33ABF7",
"q. c #31A7F8",
"w. c #34ADF8",
"e. c #36B0F7",
"r. c #3BB4F7",
"t. c #36B1F8",
"y. c #39B5F8",
"u. c #3CBBF9",
"i. c #409ECA",
"p. c #619CC6",
"a. c #51AAD2",
"s. c #57AADB",
"d. c #72B2D3",
"f. c #42A9E8",
"g. c #47B5E5",
"h. c #4FBBF0",
"j. c #6EBEE0",
"k. c #3FC1FA",
"l. c #72C7D0",
"z. c #57C6E9",
"x. c #4BC6F7",
"c. c #41C5FA",
"v. c #45CCFB",
"b. c #53CDF8",
"n. c #4ED1F5",
"m. c #47D0FC",
"M. c #49D4FC",
"N. c #4DDBFD",
"B. c #51DBFA",
"V. c #70D2F2",
"C. c #4FE0FD",
"Z. c #51E2FD",
"A. c #52E5FE",
"S. c #53E8FE",
"D. c #55EBFE",
"F. c #56EDFF",
"G. c #58EFFF",
"H. c #59F1FF",
"J. c #888795",
"K. c #969196",
"L. c #99969B",
"P. c #B08E86",
"I. c #B59987",
"U. c #B69997",
"Y. c #B4AB97",
"T. c #9194A7",
"R. c #A49AA5",
"E. c #8EAAB1",
"W. c #ABA3AD",
"Q. c #B4A4A7",
"!. c #B5ADB5",
"~. c #BBAFB7",
"^. c #BDB4BB",
"/. c #C39488",
"(. c #D99B84",
"). c #F78A94",
"_. c #DAA88F",
"`. c #E8BA8A",
"'. c #F2BA8D",
"]. c #E1AC96",
"[. c #E5B79B",
"{. c #F990A4",
"}. c #CAAAA7",
"|. c #CBB5B0",
" X c #E6BCA2",
".X c #F3B6AE",
"XX c #BCE19E",
"oX c #ACD3A3",
"OX c #CEC986",
"+X c #E4C097",
"@X c #D0E391",
"#X c #D0CDB9",
"$X c #EBC6AD",
"%X c #E9CAB3",
"&X c #EFD1B9",
"*X c #F6D5BA",
"=X c #92B8D0",
"-X c #B9B4C3",
";X c #82BDE1",
":X c #C5BBC5",
">X c #D2BCC5",
",X c #C7BFD0",
"<X c #8DD3CF",
"1X c #B4DAEF",
"2X c #CBC6C8",
"3X c #D8C5CB",
"4X c #DFD1CF",
"5X c #CBC8D5",
"6X c #D6CCD6",
"7X c #DBD2DA",
"8X c #E2CBC4",
"9X c #F7DCC9",
"0X c #E6CED6",
"qX c #EED7D5",
"wX c #E7D4DA",
"eX c #FAE3CB",
"rX c #EBE2DE",
"tX c #F9E6D7",
"yX c #FDEBD3",
"uX c #DED7E2",
"iX c #E4DCE3",
"pX c #EFDEE3",
"aX c #EAE6E9",
"sX c #F4E8EA",
"dX c #ECECF3",
"fX c #FBF3F4",
"gX c #FFFEFE",
/* pixels */
"H.H.F.F.D.D.D.D.D.A.D.A.A.A.A.A.C.C.C.C.C.N.N.N.N.N.N.M.N.M.M.M.M.M.M.m.v.m.v.m.v.v.v.v.v.v.v.v.k.k.k.k.k.k.k.k.k.u.u.u.u.u.u.y.",
"F.G.F.F.D.D.D.D.A.D.A.A.A.A.A.B.C.C.C.C.N.C.C.C.N.N.N.N.M.M.M.M.M.M.m.M.M.v.v.v.v.v.v.k.v.k.k.v.v.k.k.v.k.u.k.k.u.u.u.u.u.u.y.u.",
"F.F.F.F.D.D.D.D.D.A.A.A.A.A.A.N.C.C.C.N.N.N.N.n.N.N.M.M.M.M.M.M.m.m.m.M.m.v.v.v.v.v.v.v.v.v.k.k.k.k.k.k.k.k.k.u.k.u.u.u.u.u.y.u.",
"F.F.F.F.D.D.D.A.A.A.A.A.B.A.N.A.C.N.C.N.N.N.N.N.M.M.N.M.M.M.M.M.m.M.v.v.m.m.v.v.v.v.c.c.k.k.k.v.k.v.k.k.k.k.u.k.u.u.u.u.y.y.y.y.",
"F.F.D.D.A.D.D.A.A.A.A.C.A.A.C.C.C.N.C.N.C.M.M.N.M.N.N.M.M.m.M.m.M.v.v.v.v.v.v.v.v.c.v.v.c.c.c.c.k.k.k.k.u.k.u.u.u.u.u.u.u.y.y.y.",
"F.F.D.D.D.A.A.A.A.A.A.A.C.N.A.N.C.N.N.N.N.N.N.N.M.M.M.M.M.M.M.m.v.m.m.v.v.v.v.x.v.k.c.k.c.c.c.c.k.k.k.u.u.u.u.u.y.u.y.y.y.y.y.y.",
"D.D.A.D.A.A.A.A.B.A.N.A.A.N.N.N.N.N.C.M.M.N.M.M.M.M.M.M.m.m.m.m.m.v.v.v.v.v.v.c.c.v.v.c.k.c.c.k.k.k.k.k.u.u.u.u.u.y.u.y.y.y.y.e.",
"D.D.D.A.A.A.A.A.C.A.A.A.N.C.C.N.N.N.N.N.N.M.N.M.M.M.M.m.m.m.m.m.m.v.v.v.c.v.v.c.v.c.k.c.k.k.k.c.k.k.k.u.u.u.u.u.y.u.y.u.y.y.y.e.",
"D.D.A.A.A.A.A.A.A.N.A.N.N.N.N.N.C.N.N.N.M.N.N.M.M.M.k.M.M.m.v.n.v.v.v.v.v.v.c.c.c.c.c.c.k.k.u.u.k.u.k.u.u.u.u.y.u.y.y.y.y.y.y.e.",
"S.S.A.A.B.A.A.A.N.A.N.A.N.C.B.N.M.C.M.M.M.M.M.M.M.M.C.C.m.k.n.m.v.v.v.v.v.v.v.c.c.c.k.h.c.c.c.u.u.k.u.u.u.u.y.y.y.y.y.y.t.t.t.e.",
"A.A.A.A.A.A.A.N.A.A.N.C.N.N.N.N.N.M.N.M.M.M.M.M.M.k.C.k.m.m.c.c.m.k.b.c.M.v.v.c.k.k.k.k.k.u.k.u.u.u.u.u.y.u.y.y.y.t.y.t.y.t.t.t.",
"A.A.A.A.A.N.C.A.N.N.N.N.N.N.N.N.M.N.M.N.M.M.M.m.M.N.k.N.l.<XXX@X@X@XaXdX1XV.x.c.k.k.k.k.k.k.u.u.u.u.y.u.u.y.u.y.y.y.y.e.e.e.e.e.",
"A.A.A.A.N.A.N.B.A.N.N.N.N.N.N.M.M.M.M.M.N.k.n.n.k.n.<X#.@.} | @.@.+.pXwXpXpXaXz.k.k.k.u.k.u.u.u.u.u.y.y.y.y.y.y.t.t.t.t.t.e.t.t.",
"A.A.B.A.A.A.A.N.N.N.N.N.N.N.N.M.N.M.M.M.n.OX} +X#XOX{ { ] } } ] } '.0X0X0X0X4X@.XXb.k.k.k.u.u.u.u.u.y.u.y.y.y.u.y.t.t.t.e.e.w.w.",
"A.A.A.A.A.N.Z.N.N.N.N.N.N.M.M.N.M.M.M.C.Y.Y +XyX{ Y ' ' ] ] ` ] ^ 8X|.>X3X0X'.} | #.l.u.u.u.u.u.u.y.u.y.y.y.y.t.t.t.t.t.t.e.w.e.",
"A.A.C.N.C.B.N.N.N.N.N.N.M.N.M.M.M.M.M.k.W ) 5X{ Y ' { ' ^ ^ ` ` O.aXwX3X>X3XO.[ } | #.z.u.u.u.u.y.u.y.y.t.y.y.y.t.y.t.e.w.e.w.w.",
"N.A.A.B.C.N.N.N.B.N.N.N.M.M.M.M.M.M.m.m.Z wX`.v Y ] @.' Y ^ ~ ! ].gXfXsXpX6X_ ` [ ] { #.c.u.u.y.u.y.y.y.y.t.t.t.t.t.t.w.w.w.w.w.",
"A.N.N.N.C.N.N.N.B.M.N.M.M.M.M.M.M.m.M.m.=X[.Y U Y ~ ^ Y ^ Y ! Q qXgXgXgXgX$X! / ^ ' / / oXy.u.y.y.y.y.y.y.t.t.t.t.t.t.w.w.t.w.w.",
"N.N.N.A.N.N.N.N.N.M.M.N.M.N.M.M.m.m.v.m.n.) z U v Y ~ / / / ! ( aXgXgXgXgXX.K Q ! / / U +.e.y.y.y.y.y.y.t.t.t.t.t.e.t.t.w.w.w.w.",
"N.A.C.N.N.N.N.N.N.N.M.M.M.M.M.M.M.m.m.m.l.v v v b Q ! ! ! ! ! (.wXaXgXgXaX( K K U ! ! Q ! oXb.y.y.y.y.t.t.e.e.e.t.w.w.w.w.w.0.w.",
"N.N.N.N.N.N.N.M.M.N.M.M.M.M.M.m.m.m.v.v.E v v c v Y U ! Q Q b ~.2X:X2X7X,Xc b c b b U b b `.+XY.u.t.y.t.t.t.e.w.e.w.w.w.w.0.w.0.",
"N.N.N.N.N.N.N.M.M.N.M.M.M.m.m.m.m.m.v.n.Y v c x c v , q k Q J |.^.^.:X:X/.b b b b b b b v '.9X` d.t.e.e.e.e.e.e.w.w.w.0.w.w.w.0.",
"C.N.N.N.N.M.M.N.M.M.M.m.M.m.m.m.m.v.v.v.3.n i h c l , @ * y X.!.!.~.^.:XH c b b v b b b b O.8Xb E e.e.e.e.e.e.w.w.w.w.w.w.0.0.0.",
"N.N.N.N.N.N.M.M.n.M.M.M.m.m.m.v.m.v.v.v.n.*.o , e r k k * > U.U.W.!.!.!.J c c b K Q Q b b _ sXl P.e.e.e.w.w.e.w.w.w.w.0.w.0.0.0.",
"N.N.N.M.N.M.M.M.M.M.m.m.m.m.m.m.v.v.v.v.M.<.# 3 P W M t 9 o T K.R.R.W.Q.z j y k ! ! ! Q K _ 4Xt a.r.e.e.e.w.w.w.w.w.w.w.0.0.0.0.",
"N.M.M.N.M.M.M.M.M.M.M.v.m.m.v.v.v.v.v.v.n.1.= V o._.X. .P 3 7 2.L.R.R.6 * # # & y ! ! K K ( T.f.w.w.e.e.w.w.w.w.w.w.0.0.0.0.w.8.",
"M.N.N.M.N.M.M.m.M.M.m.m.m.v.v.v.v.v.v.c.k.a.= V [.$X&X*XI.  Z Z S D J.> , r y , j ! ! Y K I.w.e.w.w.w.w.w.w.w.w.w.0.0.0.0.0.w.8.",
"N.M.N.M.M.M.m.M.v.v.M.v.m.v.v.v.c.v.v.c.k.z.1 S _.%X*XeX3   #XeX$X..* t n r r k Q K K b K E.e.e.e.w.e.w.w.w.w.w.0.0.0.0.0.0.9.w.",
"M.M.M.M.M.M.M.m.M.v.M.v.v.v.v.v.v.c.k.m.k.k.5 I )..X&X&X% 1 yXyXyXT . E [.X. .C t e g v v d.t.e.w.w.w.t.0.w.0.0.0.0.0.9.9.0.9.9.",
"N.M.M.M.M.M.M.m.v.M.v.v.v.v.v.c.c.v.k.k.m.k.z.B >.L  X].q E eXtXyX% . eX*X&X+Xo.m # $ =.S t.w.w.t.w.w.w.w.w.0.0.0.0.0.0.0.9.9.0.",
"M.M.M.M.M.m.m.m.m.v.m.v.v.v.v.v.v.v.a.6 4 3.a.1 3 P .X.X$X9XeXeX&X% m 9X*X%X+Xo.2 # 1.w.t.t.t.w.0.w.w.w.0.0.0.w.0.0.0.0.0.9.0.9.",
"M.M.M.M.m.m.m.m.v.v.v.v.v.v.v.c.k.<.- * > * # $ *.3 ..U.K.2XrXtXeXR  X9X$X X(.A > *.w.t.t.w.e.w.w.w.w.w.0.0.0.9.0.0.9.0.9.9.0.9.",
"M.M.m.m.m.m.m.v.v.v.v.v.v.c.c.v.g.- + X @ X o i.k.1.2 D ;.:.-.K.!.[.$X).>.{.G > =.e.e.e.0.e.e.0.w.e.0.0.w.w.8.0.0.9.9.w.8.8.9.9.",
"M.m.m.m.m.m.m.v.v.v.v.v.v.v.c.c.g.$ X X . o * *.u.j.-X3 1 4 ;.:.;.T o. .L L B 1.e.e.w.e.w.e.w.e.0.0.0.0.w.w.w.9.9.w.w.9.9.0.9.9.",
"m.M.m.n.v.v.v.v.v.v.v.c.k.v.c.c.c.7.O . . o # + W._.iX/.B n - 1 4 2 3 2 2 1.g.t.r.w.w.e.0.e.w.0.w.0.0.0.0.8.w.9.0.9.9.9.8.0.9.9.",
"m.m.m.n.v.m.v.v.c.v.c.v.c.c.c.c.c.c.a.< . . . # /.3XiXsXY.E P.}.U.}.d.r.w.t.e.t.w.e.w.w.w.w.0.0.w.w.w.0.0.w.9.w.9.w.9.9.9.9.9.9.",
"m.M.m.m.c.v.v.v.v.c.v.c.c.c.c.c.c.k.k.k.i.O $ -.Q.6XiXaXsXdXpXuX}.[.*X2Xr.y.w.w.r.w.w.w.w.w.0.0.0.w.w.w.9.9.0.8.9.9.9.9.9.9.9.9.",
"n.k.v.v.v.v.v.v.v.c.c.c.c.c.c.k.h.k.k.u.u.u.u.u.1X:XuXiXdXaXiX7X|.Y.9XeX;Xy.w.t.w.w.w.w.w.w.0.0.0.9.0.9.9.w.0.8.9.9.9.9.9.9.8.8.",
"m.m.m.v.v.v.c.v.c.v.v.k.k.c.k.k.k.k.k.u.u.u.y.h.5X,X6X7XiXuXuX6X|.# & D =Xw.t.w.w.w.w.0.0.0.0.0.w.9.w.w.9.9.9.9.9.9.9.9.9.9.9.8.",
"v.v.v.v.v.c.v.v.c.c.c.c.v.k.k.k.k.u.k.u.u.u.y.V.6X,X5X5X,X,X,X,XR.X + @ 1 y.w.w.w.w.w.w.0.0.0.0.9.0.9.9.9.0.w.9.9.9.9.8.9.8.8.9.",
"v.v.v.k.m.v.v.k.c.c.k.k.k.k.k.k.k.u.u.u.u.u.y.l.-X-X-X,X,X,X,X-X6 + X X *.w.w.w.w.w.0.w.0.0.0.0.w.8.0.0.9.9.9.9.9.9.9.8.8.8.8.8.",
"v.v.m.v.k.v.v.k.c.c.k.v.k.k.k.u.k.u.u.u.u.u.u.s.6 -.:.:.J.:.-.6 1 + = @ * ,.w.w.w.w.0.0.0.0.9.0.w.w.8.0.9.9.9.9.9.9.9.9.9.8.8.8.",
"v.v.k.v.k.v.k.v.c.c.k.k.k.u.k.k.u.u.u.u.u.u.y.y.P.f N M M N f p 9 $ + + * $.w.w.w.0.0.0.0.9.0.9.0.8.w.8.9.9.9.9.9.8.9.8.8.8.8.8.",
"v.v.v.k.v.v.k.k.c.k.k.k.k.k.u.u.u.u.y.u.y.y.u.y.T.l l x K x x x a *.$ + + 4.w.0.0.0.0.0.0.0.0.0.w.9.9.9.9.9.9.9.9.9.8.8.8.8.8.8.",
"v.v.c.v.k.k.v.k.k.k.k.k.u.u.u.u.u.u.y.u.y.y.y.y.s.d 0 8 8 i x l a s.7.4.7.9.0.w.0.0.0.8.w.9.0.9.9.9.9.9.9.9.8.8.9.9.8.8.8.8.8.6.",
"v.k.v.v.k.v.k.k.k.k.u.k.k.u.u.u.y.u.u.u.y.y.y.y.y.H d 8 Z :.s h a p.w.e.w.w.0.0.0.0.0.w.8.w.9.0.9.9.9.9.9.9.9.9.8.8.8.8.8.8.8.8.",
"k.v.v.k.k.k.k.k.k.k.k.u.u.u.u.u.u.u.y.y.u.r.y.y.t.J.g f g 2.N a f G f.w.w.w.0.0.0.w.8.w.w.0.9.9.9.9.9.9.9.8.9.8.8.8.8.8.8.8.6.6.",
"v.k.k.v.k.k.v.k.k.u.k.u.u.u.u.u.y.y.u.y.r.h...( I.G a 0 0 F F f a a 2.8.w.0.0.0.8.w.w.8.9.9.9.9.9.9.9.9.8.9.8.8.8.8.8.6.8.8.8.6.",
"k.c.c.c.k.k.k.k.u.k.u.u.u.u.y.y.r.y.r.y.t.T.x x x h s u i G D g Q v v ( f.0.0.0.8.8.w.8.9.9.9.9.9.9.9.9.9.8.8.8.8.8.8.8.6.6.6.8.",
"c.c.c.k.k.k.k.k.u.u.u.u.u.u.u.y.r.y.u.y.y.S s d s s s s i n F z x h h h T.0.0.9.w.0.0.w.9.9.9.9.9.9.9.8.8.9.8.8.8.8.8.8.6.8.6.6.",
"c.c.k.c.k.u.k.u.u.u.u.u.u.y.y.u.y.y.y.y.y.5 9 9 w 9 : * = < m s p p a p =.8.0.0.0.w.0.8.9.9.9.9.9.9.9.8.8.8.8.8.8.8.6.6.6.8.8.6.",
"c.k.k.k.k.k.u.k.u.u.u.u.u.u.y.y.y.r.t.t.w.7.,.&.&.&.4.4.0.w.%.; w w 9 : *.w.9.0.9.8.8.w.q.9.9.8.8.9.8.8.8.6.8.8.8.8.6.8.6.6.6.6.",
"k.k.u.c.u.u.u.u.u.u.u.u.y.y.y.y.y.t.y.t.e.e.e.e.w.w.w.w.w.e.0.4.$.$.&.%.9.9.9.0.w.8.9.9.9.6.9.9.8.8.8.8.8.8.8.8.9.6.6.6.6.6.6.6.",
"c.k.c.u.h.u.u.u.u.u.y.y.y.y.y.y.r.t.t.t.e.e.e.e.e.0.0.w.0.w.w.0.0.0.w.w.w.0.9.9.8.0.9.9.9.9.9.9.9.8.8.8.8.8.8.6.6.6.9.6.8.6.6.6.",
"u.u.k.c.k.u.u.u.y.u.y.y.y.y.y.y.t.e.t.t.e.t.w.e.w.e.w.w.w.0.0.0.0.0.0.9.w.9.8.w.9.9.9.0.9.8.8.9.8.8.8.8.8.6.8.8.6.6.6.6.6.6.6.6.",
"c.u.u.u.u.u.y.u.u.y.y.y.y.y.y.y.e.t.t.t.e.0.w.e.w.0.w.w.0.0.0.0.0.9.w.q.8.0.0.9.9.9.9.8.9.9.8.8.8.8.8.8.6.8.8.6.9.6.6.6.6.6.6.6.",
"k.k.k.u.u.u.y.u.y.y.y.y.y.y.t.t.y.w.w.w.w.w.w.w.w.0.0.w.0.0.0.0.q.0.w.9.9.9.9.9.9.9.8.8.9.9.8.9.8.8.8.8.8.6.8.6.6.6.6.6.6.6.6.6.",
"u.u.u.u.y.u.u.y.u.y.y.y.y.t.t.t.e.e.y.w.e.w.w.0.w.w.0.0.0.0.0.9.0.q.0.9.9.q.9.q.9.9.9.8.8.6.9.6.8.8.6.8.6.8.6.8.6.6.6.6.6.5.5.5.",
"u.u.u.u.u.y.y.u.y.y.y.y.t.t.t.t.e.w.w.w.w.w.w.w.w.0.0.0.0.0.0.0.q.q.9.9.9.9.9.9.9.8.9.6.8.8.9.9.8.6.8.6.8.6.6.6.6.6.6.6.6.5.6.5.",
"u.u.u.u.y.u.y.y.y.y.y.t.t.t.t.t.t.e.e.w.w.e.0.w.w.0.0.0.q.0.9.0.0.9.0.9.9.9.9.9.9.8.9.9.8.8.8.8.8.8.8.6.8.6.6.6.6.6.6.6.6.6.5.6.",
"u.u.u.y.y.y.y.y.y.t.e.t.t.t.t.t.w.w.e.w.w.0.0.0.0.0.0.9.0.0.9.9.q.9.9.9.9.9.9.9.8.0.8.8.8.8.8.6.6.8.8.6.6.6.6.6.6.6.6.5.5.6.5.5.",
"u.y.y.u.y.y.y.y.t.y.y.t.t.w.t.w.w.t.w.w.w.w.w.0.0.0.0.0.9.0.0.9.9.9.9.9.9.9.8.8.8.9.6.9.8.8.8.8.8.6.6.6.6.6.6.6.5.6.5.6.6.5.6.5.",
"u.u.y.u.y.y.y.y.y.t.t.t.w.t.t.w.w.w.w.0.w.0.0.0.0.0.0.9.0.9.9.q.9.9.9.9.9.9.q.9.8.8.8.8.8.6.8.6.6.8.6.8.6.6.5.6.6.6.5.6.5.6.5.5.",
"u.y.y.y.y.t.y.t.t.t.t.t.e.t.0.w.0.0.w.w.0.0.0.0.9.0.q.0.9.0.9.9.9.q.9.9.8.9.8.9.8.8.8.8.8.6.8.6.8.6.6.6.6.6.6.6.6.5.6.5.6.5.5.5."
};
