/* XPM */
static char *f7610d30b06640098e31df77592d80d75mlkQbUFzMCrzmgC[] = {
/* columns rows colors chars-per-pixel */
"64 64 15 1 ",
"  c #E8FA4B",
". c #E6F35D",
"X c #E4EB6D",
"o c #E2E47B",
"O c #C979FF",
"+ c #D8BCB9",
"@ c #DED596",
"# c #E0DC89",
"$ c #CCCCC6",
"% c #D4ABCF",
"& c #D6B3C4",
"* c #D2A1D9",
"= c #CD8EEC",
"- c #CF98E3",
"; c #CB84F6",
/* pixels */
"$$$$$$$$$$$$$$$$$$$$$$$$$$$$$$$$$$$$$$$$$$$$$$$$$$$$$$$$$$$$$$$$",
"$OOOOOOOOOOOOOOOOOOOOOOOOOOOOOOOOOOOOOOOOOOOOOOOOOOOOOOOOOOOOOO$",
"$OOOOOOOOOOOOOOOOOOOOOOOOOOOOOOOOOOOOOOOOOOOOOOOOOOOOOOOOOOOOOO$",
"$OOOOOOOOOOOOOOOOOOOOOOOOOOOOOOOOOOOOOOOOOOOOOOOOOOOOOOOOOOOOOO$",
"$OOOOOOOOOOOOOOOOOOOOOOOOOOOOOOOOOOOOOOOOOOOOOOOOOOOOOOOOOOOOOO$",
"$OOOOOOOOOOOOOOOOOOOOOOOOOOOOOOOOOOOOOOOOOOOOOOOOOOOOOOOOOOOOOO$",
"$OOOOOOOOOOOOOOOOOOOOOOOOOOOOOOOOOOOOOOOOOOOOOOOOOOOOOOOOOOOOOO$",
"$OOOOOOOOOOOOOOOOOOOOOOOOOOOOOOOOOOOOOOOOOOOOOOOOOOOOOOOOOOOOOO$",
"$OOOOOOOOOOOOOOOOOOOOOOOOOOOOOOOOOOOOOOOOOOOOOOOOOOOOOOOOOOOOOO$",
"$OOOOOOOOOOOOOOOOOOOOOOOOOOOOOOOOOOOOOOOOOOOOOOOOOOOOOOOOOOOOOO$",
"$OOOOOOOOOOOOOOOOOOOOOOOOOOOOOOOOOOOOOOOOOOOOOOOOOOOOOOOOOOOOOO$",
"$OOOOOOOOOOOOOOOOOOOOOOOOOOOOOOOOOOOOOOOOOOOOOOOOOOOOOOOOOOOOOO$",
"$OOOOOOOOOOOOOOOOOOOOOOOOOOOOOOOOOOOOOO-o .&OOOOOOOOOOOOOOOOOOO$",
"$OOOOOOOOOOOOOOOO+  #=OOOOOOOOOOOOOOOOOo    ;OOOOOOOOOOOOOOOOOO$",
"$OOOOOOOOOOOOOOO%    @OOOOOOOOOOOOOOOOOX    *OOOOOOOOOOOOOOOOOO$",
"$OOOOOOOOOOOOOOO&    #OOOOOOOOOOOOOOOOOX    *OOOOOOOOOOOOOOOOOO$",
"$OOOOOOOOOOOOOOO&    #OOOOOOOOOOOOOOOOOX    *OOOOOOOOOOOOOOOOOO$",
"$OOOOOOOOOOOOOOO&    #OOOOOOOOOOOOOOOOOX    *OOOOOOOOOOOOOOOOOO$",
"$OOOOOOOOOOOOOOO&    #OOOOOOOOOOOOOOOOOX    *OOOOOOOOOOOOOOOOOO$",
"$OOOOOOOOOOOOOOO&    #OOOOOOOOOOOOOOOOOX    *OOOOOOOOOOOOOOOOOO$",
"$OOOOOOOOOOOOOOO&    #OOOOOOOOOOOOOOOOOX         *OOOOOOOOOOOOO$",
"$OOOOOOOOOOOOOOO&    #OOOOOOOOOOOOOOOOOX         #OOOOOOOOOOOOO$",
"$OOOOOOOOOOOOOOO&    #OOOOOOOOOOOOOOOOOX         #OOOOOOOOOOOOO$",
"$OOOOOOOOOOOOOOO&    #OOOOOOOOOOOOOOOOOX         *OOOOOOOOOOOOO$",
"$OOOOOOOOOOOOOOO&    #OOOOOOOOOOOOOOOOOX    *OOOOOOOOOOOOOOOOOO$",
"$OOOOOOOOOOOOOOO&    XOOOOOOOOOOOOOOOOOX    *OOOOOOOOOOOOOOOOOO$",
"$OOOOOOOOOOOOOOO&                   XOOX    *OOOOOOOOOOOOOOOOOO$",
"$OOOOOOOOOOOOOOO%                    -OX    *OOOOOOOOOOOOOOOOOO$",
"$OOOOOOOOOOOOOOO;                    -OX    *OOOOOOOOOOOOOOOOOO$",
"$OOOOOOOOOOOOOOOO%X                 #OOX    *OOOOOOOOOOOOOOOOOO$",
"$OOOOOOOOOOOOOOOOOOOOOOOOOOOOOOOOOOOOOOX    *OOOOOOOOOOOOOOOOOO$",
"$OOOOOOOOOOOOOOOOOOOOOOOOOOOOOOOOOOOOOOo    ;OOOOOOOOOOOOOOOOOO$",
"$OOOOOOOOOOOOOOOOOOOOOOOOOOOOOOOOOOOOOO-o .%OOOOOOOOOOOOOOOOOOO$",
"$OOOOOOOOOOOOOOOOOOOOOOOOOOOOOOOOOOOOOOOOOOOOOOOOOOOOOOOOOOOOOO$",
"$OOOOOOOOOOOOOOOOOOOO&.                   o*OOOOOOOOOOOOOOOOOOO$",
"$OOOOOOOOOOOOOOOOOOO-                      .OOOOOOOOOOOOOOOOOOO$",
"$OOOOOOOOOOOOOOOOOOO+                       =OOOOOOOOOOOOOOOOOO$",
"$OOOOOOOOOOOOOOOOOOO+                       *OOOOOOOOOOOOOOOOOO$",
"$OOOOOOOOOOOOOOOOOOO+    #OOOOOOOOOOOO;.    *OOOOOOOOOOOOOOOOOO$",
"$OOOOOOOOOOOOOOOOOOO+    XOOOOOOOOOOOOOX    *OOOOOOOOOOOOOOOOOO$",
"$OOOOOOOOOOOOOOOOOOO+    XOOOOOOOOOOOOOX    *OOOOOOOOOOOOOOOOOO$",
"$OOOOOOOOOOOOOOOOOOO+    XOOOOOOOOOOOOOX    *OOOOOOOOOOOOOOOOOO$",
"$OOOOOOOOOOOOOOOOOOO+    XOOOOOOOOOOOOOX    *OOOOOOOOOOOOOOOOOO$",
"$OOOOOOOOOOOOOOOOOOO+    XOOOOOOOOOOOOOX    *OOOOOOOOOOOOOOOOOO$",
"$OOOOOOOOOOOOOOOOOOO+    #OOOOOOOOOOOO;.    *OOOOOOOOOOOOOOOOOO$",
"$OOOOOOOOOOOOOOOOOOO+                       *OOOOOOOOOOOOOOOOOO$",
"$OOOOOOOOOOOOOOOOOOO+                       =OOOOOOOOOOOOOOOOOO$",
"$OOOOOOOOOOOOOOOOOOO-                      .OOOOOOOOOOOOOOOOOOO$",
"$OOOOOOOOOOOOOOOOOOOO&.                   o*OOOOOOOOOOOOOOOOOOO$",
"$OOOOOOOOOOOOOOOOOOOOOOOOOOOOOOOOOOOOOOOOOOOOOOOOOOOOOOOOOOOOOO$",
"$OOOOOOOOOOOOOOOOOOOOOOOOOOOOOOOOOOOOOOOOOOOOOOOOOOOOOOOOOOOOOO$",
"$OOOOOOOOOOOOOOOOOOOOOOOOOOOOOOOOOOOOOOOOOOOOOOOOOOOOOOOOOOOOOO$",
"$OOOOOOOOOOOOOOOOOOOOOOOOOOOOOOOOOOOOOOOOOOOOOOOOOOOOOOOOOOOOOO$",
"$OOOOOOOOOOOOOOOOOOOOOOOOOOOOOOOOOOOOOOOOOOOOOOOOOOOOOOOOOOOOOO$",
"$OOOOOOOOOOOOOOOOOOOOOOOOOOOOOOOOOOOOOOOOOOOOOOOOOOOOOOOOOOOOOO$",
"$OOOOOOOOOOOOOOOOOOOOOOOOOOOOOOOOOOOOOOOOOOOOOOOOOOOOOOOOOOOOOO$",
"$OOOOOOOOOOOOOOOOOOOOOOOOOOOOOOOOOOOOOOOOOOOOOOOOOOOOOOOOOOOOOO$",
"$OOOOOOOOOOOOOOOOOOOOOOOOOOOOOOOOOOOOOOOOOOOOOOOOOOOOOOOOOOOOOO$",
"$OOOOOOOOOOOOOOOOOOOOOOOOOOOOOOOOOOOOOOOOOOOOOOOOOOOOOOOOOOOOOO$",
"$OOOOOOOOOOOOOOOOOOOOOOOOOOOOOOOOOOOOOOOOOOOOOOOOOOOOOOOOOOOOOO$",
"$OOOOOOOOOOOOOOOOOOOOOOOOOOOOOOOOOOOOOOOOOOOOOOOOOOOOOOOOOOOOOO$",
"$OOOOOOOOOOOOOOOOOOOOOOOOOOOOOOOOOOOOOOOOOOOOOOOOOOOOOOOOOOOOOO$",
"$OOOOOOOOOOOOOOOOOOOOOOOOOOOOOOOOOOOOOOOOOOOOOOOOOOOOOOOOOOOOOO$",
"$$$$$$$$$$$$$$$$$$$$$$$$$$$$$$$$$$$$$$$$$$$$$$$$$$$$$$$$$$$$$$$$"
};
