/* XPM */
static char *_b56d3f3928a4eb58908cc485104917cucpXm8fHxPUV9tmj[] = {
/* columns rows colors chars-per-pixel */
"100 100 3 1 ",
"  c black",
". c #373737",
"X c gray32",
/* pixels */
"X..................................................................................................X",
".                                                                                                  .",
".                                                                                                  .",
".                                                                                                  .",
".                                                                                                  .",
".                                                                                                  .",
".                                                                                                  .",
".                                                                                                  .",
".                                                                                                  .",
".                                                                                                  .",
".                                                                                                  .",
".                                                                                                  .",
".                                                                                                  .",
".                                                                                                  .",
".                                                                                                  .",
".                                                                                                  .",
".                                                                                                  .",
".                                                                                                  .",
".                                                                                                  .",
".                                                                                                  .",
".                                                                                                  .",
".                                                                                                  .",
".                                                                                                  .",
".                                                                                                  .",
".                                                                                                  .",
".                                                                                                  .",
".                                                                                                  .",
".                                                                                                  .",
".                                                                                                  .",
".                                                                                                  .",
".                                                                                                  .",
".                                                                                                  .",
".                                                                                                  .",
".                                                                                                  .",
".                                                                                                  .",
".                                                                                                  .",
".                                                                                                  .",
".                                                                                                  .",
".                                                                                                  .",
".                                                                                                  .",
".                                                                                                  .",
".                                                                                                  .",
".                                                                                                  .",
".                                                                                                  .",
".                                                                                                  .",
".                                                                                                  .",
".                                                                                                  .",
".                                                                                                  .",
".                                                                                                  .",
".                                                                                                  .",
".                                                                                                  .",
".                                                                                                  .",
".                                                                                                  .",
".                                                                                                  .",
".                                                                                                  .",
".                                                                                                  .",
".                                                                                                  .",
".                                                                                                  .",
".                                                                                                  .",
".                                                                                                  .",
".                                                                                                  .",
".                                                                                                  .",
".                                                                                                  .",
".                                                                                                  .",
".                                                                                                  .",
".                                                                                                  .",
".                                                                                                  .",
".                                                                                                  .",
".                                                                                                  .",
".                                                                                                  .",
".                                                                                                  .",
".                                                                                                  .",
".                                                                                                  .",
".                                                                                                  .",
".                                                                                                  .",
".                                                                                                  .",
".                                                                                                  .",
".                                                                                                  .",
".                                                                                                  .",
".                                                                                                  .",
".                                                                                                  .",
".                                                                                                  .",
".                                                                                                  .",
".                                                                                                  .",
".                                                                                                  .",
".                                                                                                  .",
".                                                                                                  .",
".                                                                                                  .",
".                                                                                                  .",
".                                                                                                  .",
".                                                                                                  .",
".                                                                                                  .",
".                                                                                                  .",
".                                                                                                  .",
".                                                                                                  .",
".                                                                                                  .",
".                                                                                                  .",
".                                                                                                  .",
".                                                                                                  .",
"X..................................................................................................X"
};
