/* XPM */
static char *b44a5e68de004744ecc35767852c81052fQdTDhpzZzMYUDp[] = {
/* columns rows colors chars-per-pixel */
"32 32 2 1 ",
"  c black",
". c #6D6D6D",
/* pixels */
"................................",
".                              .",
".                              .",
".                              .",
".                              .",
".                              .",
".                              .",
".                              .",
".                              .",
".                              .",
".                              .",
".                              .",
".                              .",
".                              .",
".                              .",
".                              .",
".                              .",
".                              .",
".                              .",
".                              .",
".                              .",
".                              .",
".                              .",
".                              .",
".                              .",
".                              .",
".                              .",
".                              .",
".                              .",
".                              .",
".                              .",
"................................"
};
