/* XPM */
static char *_b76715ea26249279a2b166c060cc95enSoDNmUoI2iUj25o[] = {
/* columns rows colors chars-per-pixel */
"32 32 2 1 ",
"  c #6D6D6D",
". c white",
/* pixels */
"                                ",
" .............................. ",
" .............................. ",
" .............................. ",
" .............................. ",
" .............................. ",
" .............................. ",
" .............................. ",
" .............................. ",
" .............................. ",
" .............................. ",
" .............................. ",
" .............................. ",
" .............................. ",
" .............................. ",
" .............................. ",
" .............................. ",
" .............................. ",
" .............................. ",
" .............................. ",
" .............................. ",
" .............................. ",
" .............................. ",
" .............................. ",
" .............................. ",
" .............................. ",
" .............................. ",
" .............................. ",
" .............................. ",
" .............................. ",
" .............................. ",
"                                "
};
